<?xml version="1.0" encoding="UTF-8" standalone="no"?>
<svg width="630px" height="290px" viewBox="0 0 630 290" version="1.1" xmlns="http://www.w3.org/2000/svg" xmlns:xlink="http://www.w3.org/1999/xlink">
    <!-- Generator: Sketch 41.1 (35376) - http://www.bohemiancoding.com/sketch -->
    <title>picture_get_started</title>
    <desc>Created with Sketch.</desc>
    <defs>
        <polygon id="path-1" points="0 0 630 0 630 290 0 290"></polygon>
        <mask id="mask-2" maskContentUnits="userSpaceOnUse" maskUnits="objectBoundingBox" x="0" y="0" width="630" height="290" fill="white">
            <use xlink:href="#path-1"></use>
        </mask>
        <mask id="mask-4" maskContentUnits="userSpaceOnUse" maskUnits="objectBoundingBox" x="0" y="0" width="630" height="290" fill="white">
            <use xlink:href="#path-1"></use>
        </mask>
        <polygon id="path-5" points="0.0287880294 0.2008175 9.24107957 71.54875 20.7765911 0.2008175 0.0287880294 0.2008175"></polygon>
    </defs>
    <g id="Page-1" stroke="none" stroke-width="1" fill="none" fill-rule="evenodd">
        <g id="0-get-started" transform="translate(-405.000000, -323.000000)">
            <g id="Group-3">
                <g id="Group">
                    <g id="picture_get_started" transform="translate(405.000000, 323.000000)">
                        <mask id="mask-3" fill="white">
                            <use xlink:href="#path-1"></use>
                        </mask>
                        <g id="Feature-Items-Style-Copy" stroke="#EEEEEE" mask="url(#mask-2)" stroke-width="2" fill="#FFFFFF">
                            <use mask="url(#mask-4)" xlink:href="#path-1"></use>
                        </g>
                        <g id="Page-1" mask="url(#mask-3)">
                            <g transform="translate(-7.000000, -124.000000)">
                                <polygon id="Fill-1" fill="#1A719E" points="0 481 644 481 644 0 0 0"></polygon>
                                <g id="Group-73" stroke-width="1" fill="none" transform="translate(106.383024, 129.870000)">
                                    <g id="Group-32" fill="#FFFFFF">
                                        <path d="M102.096803,84.9832003 C102.921878,82.0478978 98.8920507,82.921514 97.5615949,83.6231728 C97.0532093,83.8913303 95.7888556,84.754124 95.3976511,85.1876253 C94.7222074,85.9385865 94.7198037,87.2499128 93.7721393,87.9076803 C91.4237104,89.5394728 90.6737516,86.201934 88.6792697,85.538154 C84.7888581,84.244264 85.0304314,88.5023165 83.8099454,90.4894478 C82.9289842,91.9228278 83.3412212,91.685334 81.4639203,91.504959 C79.9489794,91.3600578 78.5175675,90.4894478 77.1937219,89.8749703 C76.3133615,89.4673228 75.0063419,88.5486128 73.9991856,88.6129465 C72.2817317,88.7211715 72.5070799,90.3180915 71.3647147,90.7479853 C68.4856659,91.8326403 66.5566852,87.5499365 65.2791111,85.9716553 C62.8705894,82.9948665 62.6061808,86.0233628 59.8064546,85.2537628 C58.6448597,84.9338978 58.3287712,83.6748803 57.413557,82.9016728 C56.1371847,81.8236315 54.4888377,81.5206015 52.8969779,81.3985478 C51.1590924,81.264469 46.6497244,83.0676178 46.5343462,80.4714203 C43.6577011,79.8202665 42.4906978,84.6404878 39.5996304,84.7186503 C38.6099011,84.7451053 37.2878582,83.7061453 36.2302239,83.5576365 C34.7849907,83.3550153 33.6282032,83.609344 32.2863297,83.044169 C31.2395122,82.6034528 30.1848825,81.5638915 29.1014083,81.0353928 C28.1651616,80.5778415 26.7223321,79.6368853 25.6202291,79.7884003 C24.8822888,79.8906128 23.8468889,81.1478265 23.7230976,81.1568453 C20.5952644,81.3979465 18.9114625,79.953744 16.265574,78.7500415 C12.4166265,76.8242378 12.1756542,77.5469403 8.80805044,79.953744 C6.40253337,81.3979465 3.51567251,82.1194465 3.51567251,85.4894528 C3.51567251,87.173554 7.8459638,91.7472628 6.6429048,93.4319653 C4.47836009,96.3203703 1.11015544,90.0625603 0.629412586,95.598269 C-0.0923026286,100.411877 3.75664487,96.3203703 5.68081816,98.4860728 C8.32730759,101.133978 2.55358587,102.096579 2.31321444,104.503383 C1.83187066,108.113288 6.40253337,108.59549 7.60499144,110.280193 C9.28939423,112.205395 9.53036659,117.019604 13.3787132,115.3343 C17.2276607,113.409098 16.265574,105.948187 22.2796672,106.428585 C21.7983234,108.35499 17.2276607,114.131199 21.7983234,112.205395 C24.9255557,110.761794 24.2038404,106.670288 28.5341317,109.077092 C31.4209926,110.520693 33.5855373,114.131199 35.5097106,116.297503 C38.3965714,119.666908 39.8406028,117.981604 42.4864913,120.148509 C45.1323798,122.314212 44.1702932,127.369522 46.8161817,130.256724 C48.9813273,132.423629 51.8681882,132.904629 52.1091605,136.755635 C52.5899034,140.12504 49.7030425,142.772945 50.6651292,146.383452 C51.6272158,149.993357 54.5140767,150.716059 56.6792223,153.122863 C59.0847394,155.529667 59.3257117,156.973268 62.2125726,158.65797 C65.8205477,160.824274 65.3392039,161.065375 67.7453219,164.916382 C70.6315819,169.007888 72.5563561,165.637882 75.6829874,167.563685 C78.3294769,169.007888 76.4053036,172.858293 77.8481331,175.024597 C79.2915635,177.4314 82.9001396,178.634502 85.3056567,179.116704 C89.3949756,179.838805 88.9142327,179.116704 91.8004927,182.005109 C94.6873535,185.133413 96.6121277,182.96771 99.4989886,184.892913 C101.904506,186.577615 101.423162,189.224919 105.031137,189.947622 C105.031137,187.781318 103.106964,183.689812 101.18279,182.005109 C100.701447,181.523508 98.2959296,181.283008 98.0555582,180.801407 C97.0928706,179.116704 98.2959296,178.634502 98.2959296,176.9504 C97.5742144,169.007888 92.7631802,177.4314 88.1925175,174.784097 C85.3056567,173.099394 86.0273719,171.655192 86.2677433,168.045287 C86.5087157,163.953179 87.2298299,162.749477 91.8004927,163.953179 C92.7631802,164.19428 94.4469821,165.637882 95.1686973,165.637882 C96.8524992,165.637882 97.3338429,163.953179 98.2959296,163.953179 C101.423162,163.712679 101.423162,167.081483 104.550394,168.285185 C105.272109,166.119483 103.828679,163.231078 105.031137,161.065375 C105.993825,158.65797 108.880685,157.454869 110.324116,155.287964 C112.007918,152.88116 112.729633,150.955958 114.894178,149.030755 C115.856865,148.068154 117.540667,147.586553 118.262382,146.383452 C118.984098,145.179749 118.262382,143.734945 118.743125,142.772945 C121.149243,138.680838 121.870357,140.847743 124.99759,141.569844 C126.681993,142.050844 125.960277,143.495047 127.884451,141.569844 C129.08751,140.12504 128.606166,139.64404 127.884451,138.440338 C126.44102,135.793034 121.629986,136.755635 124.757218,133.14573 C125.478934,132.181927 130.049596,130.016825 130.771311,130.016825 C131.011683,131.460427 130.049596,133.385629 130.53094,134.58873 C131.492426,136.753832 131.732797,135.553737 133.653365,136.27223 C139.469753,138.448755 142.500836,131.175434 137.025776,127.910647 C135.482591,126.990133 134.614851,126.946843 134.1936,124.955503 C133.879314,123.469814 134.915916,122.15969 134.143723,121.111712 C133.357708,120.046297 131.227416,120.233887 130.236485,119.720419 C128.333344,118.732565 128.752792,118.15777 128.077349,115.821914 C127.452984,113.663427 125.70969,107.677983 123.108871,107.182553 C122.865495,108.543783 122.68101,112.136853 121.094559,112.632283 C118.970276,113.296664 118.138591,108.832984 117.059323,107.445299 C114.969895,104.758914 108.018954,100.308462 108.452824,106.670288 C108.582024,108.55701 108.181806,111.917998 108.639713,113.649598 C109.280303,116.068427 111.46588,116.284275 109.6018,119.185307 C108.943182,120.211039 107.818845,120.882034 107.491339,122.073712 C107.078501,123.578039 108.091065,123.924359 108.352469,124.94949 C109.109639,127.920267 106.996173,129.550255 105.079211,126.694919 C103.811252,124.80519 103.430263,121.954063 101.669543,120.424483 C100.981479,119.82684 98.9809882,119.806398 98.2845119,119.186509 C97.4197757,118.415105 97.5123187,117.59019 97.0862604,116.298104 C94.0738054,107.1573 91.7692444,119.719818 88.8481306,118.533552 C87.0309226,117.79702 87.1775492,110.411265 87.4527744,108.902128 C88.1270163,105.20925 92.0438687,106.564468 93.6898121,103.787294 C94.8748432,101.787537 93.1429671,98.9358078 96.3597377,98.727174 C99.1528537,98.5455965 100.866101,103.95384 101.42857,98.3658228 C101.761485,95.059549 100.483911,91.9432703 100.696038,88.623769 L102.096803,84.9832003 Z" id="Fill-2"></path>
                                        <path d="M106.161904,189.947441 C106.161904,189.947441 105.680561,194.279447 104.958845,194.76165 C104.23713,195.243251 103.756387,197.890555 103.034071,198.371555 C102.312957,198.853156 100.869526,202.463061 100.869526,202.463061 L100.869526,205.832466 C100.869526,205.832466 100.147811,209.683472 102.071984,210.887175 C103.996759,212.090877 105.199818,215.460884 106.161904,215.700782 C107.123991,215.941282 109.048765,217.386086 109.048765,217.386086 L112.65674,220.514991 L112.65674,227.494301 L112.65674,232.06801 L112.65674,239.528921 L110.731966,243.379927 L108.807793,252.526142 L108.086679,259.265554 L107.845706,263.838661 L109.529508,270.577471 L112.65674,275.391079 L115.302629,279.483186 L119.63292,280.926787 L122.038437,279.483186 C122.038437,279.483186 121.798066,277.075781 120.354635,276.354281 C118.911205,275.63218 118.911205,273.706977 118.429861,272.743775 C117.949118,271.781174 119.873292,267.448566 119.873292,267.448566 L122.038437,263.838661 C122.038437,263.838661 120.835378,263.115959 119.63292,262.63556 C118.429861,262.153959 119.63292,263.357661 118.429861,262.153959 C117.227403,260.950256 119.151576,257.821351 119.151576,257.821351 C120.595007,256.617649 123.722239,254.211446 123.722239,254.211446 C122.519781,252.766642 123.722239,251.32244 123.722239,251.32244 L128.05253,249.397237 L130.458047,247.471434 L130.458047,245.305731 L132.863564,243.379927 C132.863564,243.379927 136.4457,243.139427 136.218549,242.417326 C135.990797,241.695225 137.434227,240.732624 137.434227,239.288421 C137.434227,237.844219 139.118029,235.437415 139.118029,235.437415 C139.118029,235.437415 142.486234,231.586409 142.726605,230.864307 C142.966977,230.142807 144.410407,229.901105 144.410407,229.901105 C145.853837,229.179004 147.53824,229.179004 148.018983,227.975902 C148.500327,226.7722 150.905844,227.253801 150.664872,225.569099 C150.4245,223.884396 149.496065,221.959194 150.681698,220.514991 C151.867931,219.070789 151.867931,219.551789 152.348673,217.144985 C152.830017,214.738181 154.032475,214.497681 154.995163,213.53508 C155.957249,212.571877 157.160308,213.53508 157.160308,211.609276 C157.160308,209.683472 157.40068,211.850377 157.160308,209.683472 C156.919336,207.51777 157.40068,207.03677 156.198222,206.314669 C154.995163,205.592567 153.792705,204.869865 152.830017,204.147764 C151.867931,203.425662 150.184129,202.944662 150.184129,201.74096 C150.184129,200.537859 150.4245,200.055656 148.740698,200.055656 C147.056896,200.055656 146.094209,200.778359 145.132122,200.778359 C144.170036,200.778359 142.726605,201.982061 142.726605,201.982061 C142.726605,201.982061 140.801831,202.944662 140.080717,202.703561 L139.359001,202.463061 C139.359001,202.463061 140.561459,203.907264 139.359001,202.463061 C138.155942,201.018859 138.636685,198.371555 138.636685,198.371555 C138.636685,198.371555 137.91497,197.649454 137.91497,196.926751 C137.91497,196.205251 136.218549,195.001549 136.218549,195.001549 L136.218549,194.039549 L132.623193,197.168454 L129.001997,198.612656 C128.05253,197.168454 129.711093,196.446352 129.001997,194.76165 C128.292902,193.076346 128.05253,194.76165 128.292902,193.076346 C128.533273,191.391644 127.812159,189.947441 127.812159,189.947441 C127.812159,189.947441 127.571187,188.74434 126.128357,188.262739 C124.684927,187.781137 123.963211,189.947441 123.722239,188.262739 L123.481868,186.578036 C123.481868,186.578036 125.165669,188.503239 123.481868,186.578036 C121.798066,184.652232 116.987032,184.411732 116.987032,184.411732 L113.378456,184.411732 L110.972938,184.411732 L108.086679,184.411732 L103.756387,184.411732 L100.176656,185.857137 L97.0590383,186.112067 L100.104544,189.559034 L106.161904,189.947441 Z" id="Fill-4"></path>
                                        <path d="M130.843663,16.1715206 C129.568493,15.9304194 128.365434,17.3746219 128.365434,17.3746219 C127.64432,19.0599256 126.922604,22.6704319 126.922604,22.6704319 L124.276115,24.8361344 L124.276115,28.6871406 L119.945824,30.6123431 L121.389855,32.0565456 L125.395044,34.7044506 L124.276115,36.1486531 L122.351942,39.2775581 L119.945824,41.2027606 L115.856505,43.3690644 C116.096876,45.2948681 114.172703,47.9421719 115.856505,47.9421719 L119.705452,47.9421719 L123.001545,47.9421719 C123.001545,47.9421719 119.224709,50.8305769 118.743366,51.5520769 C118.262623,52.2741781 119.945824,54.1999819 120.667539,54.1999819 L124.99783,54.1999819 L128.365434,54.1999819 C128.365434,54.1999819 132.214381,57.0883869 132.455354,58.2920894 C132.695725,59.4951906 132.455354,62.6240956 132.455354,62.6240956 L133.657812,65.5125006 L135.341614,67.6788044 L135.341614,71.5292094 L135.341614,73.4550131 C135.341614,73.4550131 139.165322,73.2145131 139.899657,73.4550131 C140.633992,73.6961144 141.596078,75.6207156 141.596078,75.6207156 L141.596078,77.6481306 L141.596078,80.1944244 L141.596078,82.1196269 C139.191162,83.0822281 137.988103,85.4896331 137.988103,85.4896331 L138.228474,88.8590381 C138.228474,88.8590381 140.126808,90.3032406 139.899657,91.0247406 C139.671905,91.7474431 139.899657,92.7100444 139.899657,92.7100444 L141.596078,95.3573481 L142.799137,97.7641519 L142.799137,100.171557 L141.596078,101.856259 L142.799137,104.985164 L145.685998,107.632468 L148.091515,109.317772 C149.294574,110.039272 152.90315,101.615158 152.90315,101.615158 C152.90315,101.615158 153.624264,101.374658 152.90315,100.171557 C152.180834,98.9672531 153.223445,98.0052531 153.223445,98.0052531 C153.223445,98.0052531 153.624264,97.7641519 154.34598,96.3205506 C155.067695,94.8757469 156.751497,92.9505444 156.751497,92.9505444 L158.676271,91.7474431 C158.676271,91.7474431 157.954556,92.9505444 159.878729,90.0627406 C161.803503,87.1737344 163.005961,86.4522344 163.005961,86.4522344 L163.246934,85.2491331 C163.246934,85.2491331 161.803503,85.7301331 163.246934,85.2491331 C164.690364,84.7669306 165.892822,85.0080319 165.892822,85.0080319 C165.892822,85.0080319 167.576624,84.2859306 168.298339,83.0822281 C169.020054,81.8791269 170.223113,81.1570256 170.223113,81.1570256 L170.223113,78.9907219 L170.223113,77.6481306 C170.223113,77.6481306 168.779082,77.0649181 170.223113,75.1397156 L171.666544,73.2145131 L173.109974,72.0108106 L173.109974,70.0850069 C173.109974,68.6414056 175.574983,69.1200006 175.51489,68.4003044 L175.274519,65.5125006 C175.274519,65.5125006 176.476977,62.6409306 176.476977,62.7527631 L176.476977,62.6409306 L176.476977,59.2546906 L176.476977,56.3662856 L176.476977,54.4404819 C176.476977,54.4404819 174.552804,50.1084756 174.312432,49.3863744 C174.072061,48.6642731 173.590717,47.4605706 173.590717,47.4605706 L174.072061,45.0537669 L174.552804,43.3690644 C174.552804,43.3690644 174.793776,42.8874631 174.793776,41.6843619 C174.793776,40.4812606 175.996234,39.7591594 176.476977,39.0364569 C176.958922,38.3143556 177.920408,37.8333556 179.123467,36.3891531 C180.325925,34.9449506 181.288612,34.2228494 180.566897,33.5007481 C179.845182,32.7786469 181.288612,33.5007481 179.845182,32.7786469 C178.401751,32.0565456 178.401751,33.2602481 178.401751,32.0565456 C178.401751,30.8528431 179.307351,30.4283606 179.845182,29.8902419 C181.288612,28.4466406 180.81508,27.4834381 180.81508,27.4834381 C179.364439,25.7987356 177.439665,26.5208369 177.439665,26.5208369 C176.717949,24.8361344 178.642123,22.6704319 179.364439,22.4293306 C180.085553,22.1888306 182.250699,22.4293306 182.250699,22.4293306 L184.415844,21.4667294 C184.415844,21.4667294 183.694129,20.2630269 184.415844,19.5409256 C185.13756,18.8188244 184.415844,17.8562231 184.415844,17.8562231 L181.769355,16.1444644 L179.604209,16.1444644 L174.072061,21.9477294 L171.1852,25.0766344 C170.703856,22.4293306 171.666544,20.7446281 172.147287,19.5409256 C172.62803,18.3378244 170.944228,20.0225269 172.62803,18.3378244 C174.312432,16.6525206 175.034148,16.1444644 175.034148,16.1444644 C175.034148,16.1444644 174.552804,16.1174081 172.869002,16.1444644 C171.1852,16.1715206 170.223113,15.8528581 169.501398,16.1324394 C168.779082,16.4120206 167.336253,17.1341219 167.336253,17.1341219 C164.690364,18.0973244 165.652451,19.7820269 164.690364,18.0973244 C163.727677,16.4120206 162.766191,17.6151219 163.727677,16.4120206 C164.690364,15.2089194 165.892822,15.2089194 166.614537,14.9678181 C167.336253,14.7273181 168.725599,14.1525231 169.501398,13.7647169 C171.906915,12.5610144 175.034148,12.0794131 174.312432,12.0794131 C173.590717,12.0794131 173.349745,10.1542106 172.388259,9.19160937 C171.425572,8.22840687 173.109974,8.95110937 171.425572,8.22840687 C169.74177,7.50630562 167.817596,8.22840687 167.817596,8.22840687 L168.298339,5.09950187 C168.298339,5.09950187 168.298339,3.41479937 167.095881,3.17429937 C165.892822,2.93379937 165.892822,4.66660187 164.690364,3.17429937 C163.486704,1.68199687 161.803503,3.15085062 161.803503,3.15085062 C162.284246,1.68199687 163.246934,1.24909687 159.157014,0.286495625 C155.067695,-0.676706875 149.947783,4.61850187 149.947783,4.61850187 L149.947783,7.98790687 L149.947783,9.67260937 L148.091515,11.1168119 C148.091515,11.1168119 147.610171,11.3579131 146.167342,11.5984131 C144.723911,11.8389131 143.761825,11.1168119 143.039509,10.8763119 C142.317793,10.6358119 140.36778,10.3947106 139.899657,10.6358119 C139.431533,10.8763119 139.899657,12.0794131 139.899657,12.0794131 L137.747131,13.5242169 L133.176468,16.1715206 L130.843663,16.1715206 Z" id="Fill-6"></path>
                                        <path d="M230.110453,89.099478 C230.110453,89.099478 232.034626,95.116788 230.110453,96.0793893 C228.18628,97.0419905 227.855168,98.486193 226.817364,98.486193 C225.780763,98.486193 225.53979,99.9309968 224.337332,100.652497 C223.134874,101.374598 219.76667,105.706604 219.76667,105.706604 C219.76667,105.706604 219.76667,108.924494 221.209499,109.361603 C222.652929,109.798712 225.365521,110.761313 225.365521,110.761313 C225.365521,110.761313 225.690022,111.724516 226.817364,110.761313 C227.945307,109.798712 228.907995,111.189403 228.907995,111.189403 C228.907995,111.189403 231.098981,115.334421 230.965574,115.334421 C230.832168,115.334421 226.817364,117.019724 226.817364,117.019724 C226.817364,117.019724 227.60398,114.612319 225.369127,115.816022 C223.134874,117.019724 223.134874,119.185427 221.931815,121.110629 C220.728756,123.035832 218.082868,130.016946 217.12018,130.256844 C216.158093,130.497946 217.841895,130.016946 216.158093,130.497946 C214.473691,130.978946 212.549517,131.701047 211.827802,131.942148 C211.106087,132.182047 209.181914,133.246861 210.144,133.798207 C211.106087,134.348952 210.625344,131.701047 212.308545,136.515256 C213.992948,141.328262 213.512205,144.217268 212.308545,143.254066 C211.106087,142.292066 211.059215,142.499497 209.880193,141.913879 C208.701171,141.328262 207.498112,142.980497 206.535424,141.913879 C205.573338,140.847262 204.130508,141.913879 204.130508,141.913879 L204.130508,144.698268 L204.130508,148.308774 C205.813709,149.030876 205.332966,150.233977 206.535424,150.233977 C207.737882,150.233977 205.332966,152.881281 209.422285,152.159781 C213.512205,151.437679 214.473691,149.993477 215.67675,149.511876 C216.879208,149.030876 219.525697,148.789774 219.525697,148.068274 C219.525697,147.346173 220.247412,145.660869 220.247412,145.660869 L220.969128,143.735066 L221.690843,141.913879 C223.615617,141.569964 225.059047,141.913879 225.059047,141.913879 L232.034626,147.827173 L233.237685,151.196578 L235.403432,150.956078 L237.086633,149.030876 L235.883574,147.586072 L235.643202,146.142471 L237.086633,147.105072 L233.718428,141.913879 C233.718428,141.913879 235.883574,142.050363 237.086633,143.012964 C238.289091,143.976768 239.491549,144.698268 239.491549,144.698268 C240.695209,146.142471 241.416323,147.586072 240.93558,149.030876 C240.454837,150.474477 240.034788,150.474477 241.086413,151.196578 C242.138639,151.919281 243.822441,153.371901 244.062813,152.284841 C244.303184,151.196578 243.822441,150.715578 244.062813,149.993477 L244.303184,149.271376 C244.303184,149.271376 245.746614,147.346173 246.708701,147.346173 C247.671389,147.346173 248.152132,149.030876 248.152132,149.030876 C248.152132,149.030876 248.874448,150.474477 248.152132,151.196578 C247.430416,151.919281 248.473628,152.675052 248.473628,152.675052 L252.481822,152.675052 C253.925853,153.362882 255.369284,152.675052 255.369284,152.675052 C256.571742,153.845084 257.053086,155.048186 257.053086,155.048186 L257.053086,157.935989 L255.850027,159.139692 L253.204138,159.139692 L251.520336,157.935989 L249.35459,159.139692 L246.708701,159.139692 C246.708701,159.139692 243.341097,155.288084 242.619382,155.529186 C241.897667,155.770287 241.175952,160.342793 240.454837,159.139692 C239.733122,157.935989 241.175952,156.010186 239.733122,157.935989 L238.289091,159.861192 C238.289091,159.861192 240.213264,160.342793 238.289091,159.861192 L236.364918,159.380192 C236.364918,159.380192 229.388738,155.288084 229.147765,154.084983 C228.907995,152.881281 227.945307,151.437679 227.945307,151.437679 L226.817364,149.993477 L222.172187,151.437679 L218.323239,152.159781 L213.271233,152.881281 L210.384372,154.325483 L207.016768,156.010186 C207.016768,156.010186 203.408192,157.695489 204.130508,158.417591 C204.851622,159.139692 204.03496,161.546496 204.03496,161.546496 L204.03496,163.231198 L202.686477,165.638002 L199.559244,167.081603 C196.913356,168.045407 196.672985,170.932609 196.432012,171.655312 C196.191641,172.377413 196.432012,175.265818 196.432012,175.265818 L196.325047,177.672622 L196.325047,180.561027 L194.988582,182.485628 L195.951269,184.411432 C195.951269,184.411432 198.597759,187.059337 199.559244,188.021938 C200.521932,188.984539 202.205734,189.947141 202.205734,189.947141 C202.686477,191.631843 204.611251,193.076647 204.611251,193.076647 L207.978855,193.076647 L212.068775,193.076647 L216.879208,193.076647 L220.728756,193.076647 L223.134874,194.761349 L226.020533,194.761349 L226.817364,197.890254 L226.020533,200.778058 L226.020533,202.463362 L226.817364,203.906963 L228.18628,205.110666 L229.388738,207.759172 L229.62971,209.683773 L230.350824,212.331077 L232.275599,214.016381 C232.275599,214.016381 233.237685,215.941583 232.034626,216.904786 C230.832168,217.867387 230.832168,219.070488 230.110453,219.552089 L229.388738,220.033089 L229.62971,224.846697 L231.07254,229.901406 L231.794255,231.586108 L233.478057,232.669561 L234.440143,234.956114 L235.643202,238.085019 L236.364918,239.769722 L236.60589,242.898627 C236.60589,242.898627 238.04932,241.936026 239.010806,242.898627 C239.973494,243.861228 243.157213,243.691074 244.062813,242.898627 C245.986986,241.213924 250.076906,239.528621 250.076906,239.528621 L252.963767,237.603418 L255.128311,235.196614 L257.053086,232.669561 L257.053086,230.623507 L257.053086,228.698304 L258.737488,226.291501 L257.534429,224.846697 L257.053086,223.162596 L258.737488,222.199393 L261.86412,220.514691 L263.788894,218.589488 L263.788894,215.941583 L263.788894,212.091178 L263.788894,209.683773 L263.788894,207.517469 L263.788894,205.832166 C263.788894,205.832166 266.434782,205.351767 266.916126,204.388564 C267.396869,203.425963 268.358956,202.944963 269.081272,201.741261 C269.802987,200.538159 270.042758,199.816058 270.764473,199.093356 C271.486188,198.371254 272.930219,198.612957 273.891705,195.964451 C274.854393,193.317147 276.297823,190.188242 276.538194,189.947141 C276.778566,189.706641 275.816479,188.984539 276.538194,188.263039 C277.25991,187.540938 276.577856,186.096134 276.577856,186.096134 C276.577856,186.096134 276.297823,183.930432 275.576108,184.411432 C274.854393,184.893033 272.688646,185.615134 272.688646,185.615134 C272.688646,185.615134 270.524101,184.170932 269.802987,184.411432 C269.081272,184.652533 267.156498,186.577736 266.675154,184.411432 C266.194411,182.245729 267.63724,184.652533 266.194411,182.245729 C265.836258,181.649891 265.494329,181.186327 265.174034,180.812349 C264.199328,179.675386 263.428337,179.359128 263.067179,178.634622 C262.585835,177.672622 261.383377,175.987318 261.383377,175.987318 C259.939946,173.821616 256.571742,168.045407 256.33137,167.323306 C256.090398,166.600603 256.33137,163.953299 256.33137,163.953299 L257.293457,162.027496 L261.623147,168.285306 L262.585835,171.895812 C262.585835,171.895812 264.028664,172.297447 262.345463,173.580514 L263.067179,175.506318 L264.269637,177.672622 L267.156498,180.561027 L268.358956,180.561027 C268.358956,180.561027 267.396869,178.875723 268.358956,180.561027 C269.321042,182.245729 273.891705,182.005229 273.891705,182.005229 L276.869306,180.319926 C279.184083,179.356723 280.387142,178.394723 280.387142,178.394723 L282.79326,176.949919 C283.995718,175.506318 285.438548,174.543116 285.438548,174.543116 C286.401235,172.617913 286.401235,174.062717 286.401235,172.617913 L286.401235,170.210508 C286.401235,170.210508 284.957204,169.248508 284.235489,169.007407 C283.514374,168.767508 283.03303,167.803704 282.311315,167.803704 C281.5896,167.803704 280.146771,168.767508 280.146771,168.767508 L278.462368,169.729508 C278.462368,169.729508 277.500281,169.729508 276.538194,169.248508 C275.576108,168.767508 273.651935,169.007407 272.448876,168.285306 C271.245817,167.563806 270.524101,167.742377 270.28373,166.328838 C270.042758,164.916502 269.802987,164.434299 270.764473,163.712799 C271.72716,162.991299 273.16999,162.027496 273.16999,162.027496 L274.614021,162.027496 L279.905798,164.675401 L282.071545,164.675401 L289.288096,167.803704 L294.579873,167.803704 L297.225761,168.285306 L297.225761,170.452211 C298.669793,171.895812 300.834338,172.136913 300.834338,172.136913 C302.277768,173.580514 300.353595,176.469521 300.834338,177.913723 C301.315681,179.356723 301.381783,180.801527 301.381783,180.801527 L304.442914,183.208331 L304.442914,185.374634 L305.886945,188.021938 C307.089403,188.502938 308.532833,188.984539 308.291861,187.781438 C308.050889,186.577736 309.254549,185.855634 309.735292,184.411432 C310.216635,182.967831 311.660066,182.005229 311.901038,181.042027 C312.140809,180.078824 314.064982,179.356723 314.546326,178.394723 C315.02827,177.431521 317.674159,175.987318 317.674159,175.987318 C317.674159,175.987318 319.838103,174.543116 320.560419,173.580514 C321.282134,172.617913 321.282134,172.136913 323.928023,171.895812 C326.573911,171.655312 328.258314,173.340014 328.258314,173.340014 L328.258314,175.265818 L328.258314,176.949919 L328.258314,179.116824 L329.701143,179.838926 L332.107261,178.394723 L332.107261,182.485628 C332.107261,182.485628 332.588605,185.855634 332.107261,186.577736 C331.626518,187.299837 330.851321,190.428742 332.321192,190.910343 C333.791063,191.391944 334.994122,193.798748 334.994122,193.798748 L336.677924,198.130754 L330.663831,193.557046 L329.942717,195.482849 L331.145175,198.371254 L332.588605,200.538159 L333.31032,202.222261 L336.677924,202.944963 C336.677924,202.944963 338.842469,203.425963 338.842469,204.629064 C338.842469,205.832166 341.247986,207.036469 341.247986,207.036469 L342.932389,208.961672 L346.059621,208.961672 L347.743423,209.683773 L358.087807,211.368476 L363.620557,210.405874 L357.606463,209.443273 L353.276773,208.480071 L351.351999,207.517469 C349.667596,206.554868 349.908568,207.036469 348.224767,206.314368 C346.540965,205.592267 343.894475,203.667064 343.894475,203.667064 C341.969701,201.981761 340.045528,200.538159 340.045528,200.538159 C340.045528,200.538159 339.084042,199.816058 338.842469,199.093356 C338.602097,198.371254 340.045528,196.927052 340.045528,196.927052 C339.805156,195.482849 339.564785,194.039248 339.564785,194.039248 L338.362327,192.595046 L336.918295,189.947141 C336.918295,189.947141 335.234494,189.225039 335.474865,187.781438 C335.715837,186.337837 336.436952,188.021938 335.715837,186.337837 C334.994122,184.652533 336.436952,188.021938 335.715837,186.337837 L334.994122,184.652533 L339.564785,187.540938 L340.526271,189.947141 L342.451045,188.744039 L344.857163,186.337837 L345.337906,184.411432 L344.135448,183.208331 L341.247986,178.634622 C341.969701,176.949919 343.17276,176.228419 343.413732,175.506318 C343.654104,174.784217 344.375218,173.580514 344.375218,173.580514 L346.059621,173.099514 L348.945881,174.302616 L352.314085,173.340014 L357.606463,170.210508 L360.493324,166.328838 L361.936154,166.328838 L363.620557,163.471698 L363.620557,162.027496 C363.620557,162.027496 361.214439,160.102293 360.974067,159.139692 C360.733696,158.177091 360.493324,155.048186 360.493324,155.048186 L359.530637,152.400281 L361.936154,151.437679 L359.77221,149.511876 L358.328179,147.827173 C358.328179,147.827173 360.252352,145.660869 360.974067,145.420369 C361.696383,145.179268 363.620557,144.938768 363.620557,144.938768 L364.823616,145.420369 L364.823616,147.105072 L366.026074,149.271376 C366.026074,149.271376 366.279665,154.408456 367.229133,154.566584 C368.671962,154.807084 370.837709,151.919281 370.837709,151.919281 L370.837709,150.233977 L372.52091,146.864572 C372.761281,144.217268 374.926427,143.495167 374.926427,143.495167 L377.092173,141.913879 C377.092173,141.913879 378.535003,143.702598 378.775374,141.913879 C379.016347,140.125161 379.256117,142.292066 381.181492,138.440458 C383.105665,134.588851 384.308724,133.798207 384.308724,133.798207 L384.308724,128.812642 C384.308724,128.812642 384.067752,127.127939 384.308724,125.924838 C384.548495,124.721136 384.308724,121.351731 384.308724,121.351731 C384.308724,121.351731 383.346037,121.832731 382.38395,121.592832 C381.421864,121.351731 380.459777,121.592832 379.738062,120.629028 C379.016347,119.667028 377.332545,122.314332 379.016347,119.667028 C380.700148,117.019724 383.80094,114.612319 384.415089,113.649718 C385.03044,112.686516 389.36013,109.645994 389.841474,109.361603 C390.322217,109.077212 392.727734,110.761313 392.727734,110.761313 L395.374824,111.242313 L399.223171,111.724516 C399.223171,111.724516 400.666,111.964414 401.147945,110.761313 C401.628688,109.557611 403.31249,106.428706 403.31249,106.428706 L405.477635,104.263003 L407.161437,103.781402 L407.161437,105.225604 C408.604267,104.503503 410.529041,102.818801 411.251357,102.818801 C411.973072,102.818801 411.251357,106.670408 411.251357,106.670408 L409.08561,109.361603 L407.401809,109.361603 L411.571652,109.361603 L417.505221,105.225604 L421.835512,103.781402 L423.760286,102.818801 C424.962744,103.300402 428.089976,101.856199 428.089976,101.856199 C428.089976,101.856199 429.773778,100.411997 429.533407,98.7272943 C429.293035,97.0419905 429.821252,97.0419905 429.556843,96.0793893 C429.293035,95.116788 430.735865,94.876288 430.735865,94.876288 C432.179896,95.116788 434.10407,97.524193 434.10407,97.524193 C435.5475,98.005193 437.471673,98.7272943 438.193389,97.7640918 L438.915104,96.8020918 C438.915104,96.8020918 438.193389,95.357288 438.915104,94.395288 C439.636819,93.4320855 439.636819,91.5062818 438.915104,90.3031805 C438.193389,89.099478 437.471673,89.099478 436.509587,86.6932755 C435.5475,84.2858705 431.458181,81.1569655 430.495494,80.6753643 C429.533407,80.1943643 429.533407,80.6753643 426.406175,80.6753643 C423.278341,80.6753643 421.835512,80.4619205 421.835512,80.4619205 L420.392081,83.082168 L420.633054,85.489573 L419.911339,87.4147755 C419.911339,87.4147755 418.467307,87.1736743 417.746193,86.4521743 C417.024478,85.730073 416.302763,85.489573 415.581047,85.0079718 C414.859332,84.5269718 415.581047,84.2858705 415.821419,82.601168 C416.06179,80.9158643 415.821419,80.2478755 414.859332,80.4619205 C413.897245,80.6753643 413.17553,81.8790668 411.731499,82.360668 C410.28927,82.8422693 408.123524,85.0079718 408.123524,85.0079718 L407.883152,83.322668 C407.883152,83.322668 407.401809,80.6753643 407.401809,79.2311618 C407.401809,77.7875605 408.604267,78.0280605 407.401809,77.7875605 C406.19935,77.5470605 404.75592,77.6480705 404.75592,77.6480705 L399.223171,76.102858 L396.577282,76.102858 C396.577282,76.102858 394.411536,73.454953 393.930793,72.7328518 C393.449449,72.0107505 392.006019,70.566548 392.006019,70.566548 L389.841474,70.566548 L388.879387,74.6586555 L385.991925,69.3628455 L383.105665,70.8076493 L381.902606,72.7328518 C380.94052,74.4175543 381.662235,74.4175543 380.700148,75.6206555 L379.738062,76.8237568 C379.738062,76.8237568 382.864693,73.6960543 379.738062,76.8237568 C376.610829,79.9538643 376.370458,80.6753643 375.167399,80.9158643 C373.964941,81.1569655 371.799194,82.601168 371.799194,82.601168 C370.355764,82.1195668 369.63465,77.6480705 369.63465,77.6480705 C369.63465,77.6480705 369.153306,75.8617568 368.431591,75.1396555 C367.709275,74.4175543 368.912334,77.3059593 367.709275,74.4175543 C366.507417,71.5291493 368.671962,72.2518518 368.671962,71.2886493 C368.671962,70.326048 369.393677,71.2886493 367.950247,69.3628455 C366.507417,67.437643 365.545331,66.956643 364.342272,66.4750418 C363.139213,65.9934405 364.342272,66.2345418 363.139213,65.9934405 C361.936154,65.7529405 361.214439,67.197143 361.214439,67.197143 C361.214439,67.197143 359.77221,69.3628455 358.56855,67.197143 C357.366092,65.0308393 356.884748,64.789738 355.68229,64.068238 C354.479231,63.3461368 352.314085,64.549238 351.351999,64.068238 C350.389311,63.5866368 349.186853,63.8313455 349.186853,63.8313455 L346.299992,67.197143 C346.299992,67.197143 346.059621,69.1223455 345.097534,69.3628455 C344.135448,69.6039468 344.135448,72.2518518 344.135448,69.6039468 C344.135448,66.956643 349.186853,61.420333 349.186853,61.420333 L351.351999,59.9761305 C352.314085,57.569928 352.314085,59.2546305 352.314085,57.569928 L352.314085,55.8846243 L345.337906,52.2747193 L343.413732,52.2747193 C342.692017,52.2747193 343.881255,50.3657505 342.932389,49.6268143 C340.767844,47.9421118 340.204173,49.6268143 338.842469,49.6268143 C336.677924,49.6268143 335.474865,50.5894155 335.474865,50.5894155 L335.234494,53.2373205 C335.234494,53.2373205 335.715837,54.1265693 335.234494,54.7650968 L334.75315,55.4036243 C334.75315,55.4036243 339.564785,54.681523 334.75315,55.4036243 L329.942717,56.1251243 C329.942717,56.1251243 331.384945,55.8846243 329.942717,56.1251243 C328.498685,56.3662255 329.460772,54.1999218 326.093769,56.6067255 C322.725564,59.0135293 322.003849,60.4577318 322.003849,60.4577318 C320.801391,61.6614343 320.801391,63.8271368 320.801391,63.8271368 L320.320047,66.2345418 C320.320047,66.2345418 320.079676,67.197143 319.116387,67.9192443 C318.154902,68.6413455 317.493279,70.8076493 317.222862,70.0849468 C317.222862,70.0849468 313.553592,66.3764368 312.622152,66.7155418 L309.975663,67.6787443 C309.975663,67.6787443 309.735292,69.8444468 309.254549,70.566548 C308.772604,71.2886493 309.735292,73.214453 308.772604,73.454953 C307.811118,73.6960543 307.570146,75.6206555 305.164629,73.454953 L302.759112,71.2886493 L301.556053,68.6413455 L300.353595,66.956643 L296.985991,70.0849468 L296.023904,72.4923518 L295.782331,74.8991555 L295.782331,76.343358 L295.782331,78.7501618 L294.820845,81.6379655 L293.377415,83.322668 L291.693012,84.7668705 C290.250183,85.0079718 290.250183,82.601168 289.288096,81.3974655 C288.325408,80.1943643 287.12295,79.4716618 287.12295,79.4716618 L285.198777,79.712763 L285.438548,81.6379655 L286.882579,83.322668 L287.362721,85.9699718 C287.362721,85.9699718 290.00921,87.1736743 286.882579,87.6552755 C283.754746,88.1362755 283.514374,87.6552755 283.514374,86.6932755 L283.514374,85.730073 C283.514374,85.730073 281.830572,83.8042693 280.867885,84.2858705 L279.905798,84.7668705 C279.905798,84.7668705 282.311315,83.082168 279.905798,84.7668705 C277.500281,86.4521743 278.70334,86.4521743 277.500281,86.4521743 C276.297823,86.4521743 279.425055,87.6552755 275.094163,86.9331743 L270.764473,86.211073 C270.764473,86.211073 273.16999,85.730073 270.764473,86.211073 C268.358956,86.6932755 266.675154,86.9331743 266.194411,85.9699718 L265.713067,85.0079718 L264.269637,85.9699718 L259.459204,82.1195668 C257.534429,81.6379655 259.459204,82.8422693 257.534429,81.6379655 C255.610256,80.4348643 255.128311,79.712763 254.406596,79.4716618 C253.684881,79.2311618 252.00168,79.9538643 252.00168,79.9538643 C252.00168,79.9538643 251.038992,77.7496818 250.317277,77.6480705 C249.596163,77.5470605 249.114819,78.2306818 248.393104,77.6480705 C247.671389,77.064858 247.671389,77.7496818 245.746614,77.6480705 C243.822441,77.5470605 242.379011,78.2685605 240.695209,78.991263 C239.010806,79.712763 237.327605,81.1569655 237.327605,81.1569655 L235.161859,83.322668 C234.681116,85.0079718 231.553883,86.6932755 231.553883,86.6932755 L230.110453,89.099478 Z" id="Fill-8"></path>
                                        <path d="M367.228952,215.219903 C367.228952,215.219903 368.43141,219.31201 367.228952,218.589308 C366.025893,217.867206 364.10172,217.230483 363.380005,216.946693 C362.65829,216.663504 360.974488,221.477111 360.974488,221.477111 C359.77203,222.440314 359.531057,224.125016 358.56837,223.884516 C357.606283,223.644016 355.68211,223.208711 354.960395,223.907364 C354.238679,224.606618 353.276593,225.809719 353.276593,225.809719 L353.276593,227.735523 L350.870475,230.623326 L350.870475,232.66938 L352.554878,236.881136 C352.554878,236.881136 354.238679,239.288541 353.516964,239.769541 C352.795249,240.251143 352.314506,242.176345 352.314506,242.176345 L352.795249,243.558619 C352.795249,243.558619 355.922481,243.496089 355.922481,243.558619 C355.922481,243.620548 357.606283,245.180791 358.087627,243.558619 C358.56837,241.936446 360.493144,240.973244 360.493144,240.973244 C361.935973,242.176345 363.380005,242.416845 363.380005,242.416845 C363.380005,242.416845 362.65829,243.861649 366.747609,241.454244 C370.837528,239.04744 371.799615,243.380048 371.799615,242.416845 C371.799615,241.454244 375.167219,240.732744 375.167219,240.732744 C376.610649,241.454244 377.091993,243.558619 377.091993,243.558619 L377.091993,244.293346 C379.016166,244.823649 379.334658,243.69871 379.978253,243.558619 C381.902426,243.139548 383.8272,245.786851 383.8272,245.786851 L383.8272,247.712655 C383.8272,247.712655 385.992346,249.878358 386.714061,249.878358 L389.841294,249.878358 L391.284724,249.397358 L394.170984,249.878358 C394.170984,249.878358 395.133671,248.434756 395.614414,247.230453 C396.095157,246.027351 397.058446,248.434756 396.816872,244.58375 C396.577102,240.732744 396.412447,240.010041 396.855332,238.80694 C397.298817,237.603839 398.501275,237.844339 398.501275,236.881136 C398.501275,235.919136 398.020532,233.993333 398.501275,232.548529 C398.982619,231.104928 400.666421,232.30863 398.501275,230.142326 C396.33673,227.976023 395.855387,227.976023 395.133671,227.253921 C394.411355,226.531219 393.44987,227.253921 392.968526,226.05082 C392.487182,224.847118 392.006439,224.847118 391.284724,223.402314 C390.563009,221.959314 390.563009,221.959314 390.081665,220.515111 C389.600922,219.070308 389.841294,218.589308 389.600922,217.867206 C389.35995,217.145105 389.35995,216.663504 388.638235,215.219903 C387.91712,213.7757 387.435776,213.294099 386.714061,213.052998 C385.992346,212.813099 385.030259,214.256099 385.030259,214.256099 L385.030259,218.829808 L384.308544,220.75501 C382.624141,221.477111 382.624141,221.718213 381.421683,220.996111 C380.218624,220.27401 381.902426,221.718213 380.218624,220.27401 C378.535423,218.829808 378.535423,220.75501 378.535423,218.829808 C378.535423,216.904605 378.05408,218.829808 378.535423,216.904605 C379.016166,214.978801 378.775194,216.182504 379.016166,214.978801 C379.256538,213.7757 380.460198,214.497801 379.256538,213.7757 C378.05408,213.052998 376.370278,213.026543 376.370278,213.026543 C376.370278,213.026543 377.448344,213.480486 375.225509,213.026543 C373.002674,212.571998 371.318872,213.026543 371.318872,213.026543 C370.115813,214.0162 367.228952,215.219903 367.228952,215.219903" id="Fill-10"></path>
                                        <path d="M355.68223,201.50034 C354.960515,201.981941 357.366032,202.944542 355.68223,203.185042 L353.998428,203.425542 C352.314626,203.667245 350.149481,202.222441 348.945821,201.50034 C347.743363,200.778238 344.375759,200.778238 344.135388,200.056137 C343.894415,199.333435 344.135388,197.408833 344.135388,197.408833 C344.61613,195.724131 345.097474,195.001428 345.819189,195.001428 C346.540905,195.001428 350.160898,197.649333 350.160898,197.649333 L351.351939,196.686732 C351.351939,196.686732 352.314626,196.686732 352.314626,195.001428 C352.314626,193.317327 350.389251,195.964631 352.314626,193.317327 C354.2388,190.669422 356.293975,189.947321 356.293975,189.947321 L357.12506,189.947321 C358.328119,192.114226 358.808861,190.910523 358.328119,192.114226 C357.846775,193.317327 356.644317,194.039428 356.644317,194.039428 C356.403344,195.48303 357.12506,196.231586 357.12506,196.700561 C357.12506,197.168333 358.512604,198.612536 358.512604,198.612536 C356.884688,199.333435 355.68223,201.50034 355.68223,201.50034" id="Fill-12"></path>
                                        <path d="M56.6794627,63.3461367 C55.717376,62.6240355 56.4390912,63.1056367 54.514317,63.3461367 C52.5901437,63.5866367 52.8305152,66.2345417 52.5901437,66.956643 C52.3491714,67.6787442 53.0708866,70.566548 52.5901437,71.2886492 C52.1088,72.0107505 52.5390648,75.1396555 52.5390648,75.1396555 L52.3623918,77.6480705 L54.5203263,77.6480705 C54.5203263,77.6480705 57.4011779,74.4175542 56.6794627,73.6960542 C55.9577475,72.9733517 56.6710497,70.0464667 56.7954419,70.306808 C56.9198341,70.566548 59.3253512,70.306808 59.3253512,70.306808 C59.3253512,70.306808 61.9712397,69.6039467 61.7308682,68.8818455 C61.4904968,68.1597442 61.7464924,66.956643 61.7464924,66.956643 C62.212212,65.0308392 62.212212,64.308738 60.7687816,64.308738 C59.3253512,64.308738 60.5284102,64.068238 59.3253512,64.308738 C58.1222922,64.549238 56.6794627,63.3461367 56.6794627,63.3461367" id="Fill-14"></path>
                                        <path d="M66.5419625,70.3066276 C65.099133,69.6037664 66.3015911,69.1227664 65.099133,69.6037664 C63.896074,70.0853676 62.0229796,72.0105701 62.0229796,72.0105701 L61.2501855,73.4547726 L61.2501855,76.5836776 L63.896074,77.6478901 C63.896074,77.6478901 64.1370463,79.7125826 63.896074,79.4720826 C63.6551016,79.2315826 62.31443,79.7516639 62.0229796,79.4913226 L63.896074,81.6383864 L66.5419625,81.6383864 L67.9853929,82.8420889 C68.9474796,84.0457914 70.2196453,83.5635889 70.2196453,83.5635889 C70.2196453,83.5635889 72.0753128,82.3604876 72.7964271,82.3604876 C73.5181423,82.3604876 75.6832879,83.6579851 75.6832879,83.6579851 C77.1267183,84.2856901 78.8105202,83.6579851 78.8105202,83.6579851 L78.8105202,81.8788864 L78.8105202,80.6751839 C78.088805,78.9910826 77.6080621,77.7495014 77.1267183,77.6478901 C76.6453746,77.5468801 76.885746,77.0652789 76.4050031,75.6204751 C75.9236593,74.1768739 75.9236593,71.7700701 75.9236593,71.7700701 C75.9236593,71.7700701 75.4429165,70.6595614 74.7212013,69.4101639 C73.9994861,68.1595639 75.2025451,68.8816651 73.9994861,68.1595639 C72.7964271,67.4374626 76.1646317,67.6785639 73.9994861,68.1595639 C71.8343404,68.6411651 72.3150833,69.0836851 72.0753128,70.3066276 C71.8343404,71.5295701 72.5560556,72.7326714 72.5560556,73.9363739 C72.5560556,75.1394751 73.2609448,75.0072001 72.0753128,75.8206914 C69.9095662,77.3057789 70.39091,78.9910826 69.9095662,77.3057789 C69.4288233,75.6204751 70.1505386,75.6204751 70.0303528,74.4173739 C69.9095662,73.2142726 69.8080093,73.2142726 70.2196453,72.2516714 C70.2196453,72.2516714 68.4667367,72.2125901 67.9853929,70.3066276 L67.5046501,68.4006651 L66.5419625,70.3066276 Z" id="Fill-16"></path>
                                        <path d="M93.2442836,66.2343614 C93.2442836,66.2343614 92.5225684,66.9564626 91.3195094,66.2343614 C90.1170514,65.5122601 89.876079,66.5259676 89.1543638,67.7038164 C88.4332495,68.8816651 89.1543638,70.3066276 89.1543638,70.3066276 L88.8340689,73.4547726 L90.3574228,75.8206914 L93.2442836,75.8206914 L94.4467417,77.6478901 L96.1311445,78.0278801 L99.2577759,78.0278801 C99.2577759,78.0278801 100.942179,78.2311026 101.904265,77.6478901 C102.866352,77.0652789 108.123876,77.8216514 108.15873,78.0627526 C108.399101,79.7125826 109.361789,80.4346839 109.843133,81.1567851 C110.323876,81.8794876 110.564247,84.0704426 111.285962,83.9375664 C112.007677,83.8046901 113.210736,86.4519939 113.210736,86.4519939 C114.172823,87.8961964 113.210736,89.5808989 113.210736,89.5808989 C114.894538,91.0251014 115.158947,91.9877026 115.158947,91.9877026 L116.57834,93.1914051 L119.705572,93.1914051 L117.540427,96.3203101 C117.540427,96.3203101 113.946874,93.2172589 112.729393,93.9129051 L109.361789,95.8387089 L111.045591,97.7639114 L115.158947,99.2087151 L116.096996,100.411816 L118.021771,103.300221 L119.705572,103.300221 L122.111089,103.300221 L123.795492,101.133918 L121.389374,93.9129051 C121.389374,93.9129051 122.111089,93.4319051 121.870718,92.4693039 C121.629746,91.5061014 123.795492,92.9509051 123.795492,92.9509051 L123.795492,95.8387089 C125.479294,95.5982089 126.200408,94.3951076 126.200408,94.3951076 C126.200408,94.3951076 125.238322,92.7098039 126.200408,91.2656014 L127.163096,89.8207976 L124.035864,89.0992976 C124.035864,89.0992976 122.832805,87.8961964 121.870718,86.9335951 C120.908631,85.9703926 116.337969,82.8420889 116.337969,81.6383864 L116.337969,80.4346839 C116.337969,80.4346839 114.413194,77.9461101 114.172823,75.8206914 C113.932452,73.6958739 116.385442,71.2884689 115.158947,72.4927726 C113.932452,73.6958739 111.767306,74.6584751 111.767306,74.6584751 C110.805219,72.7326714 109.843133,72.2125901 109.120817,70.3066276 L108.399101,68.4006651 L106.715299,68.8816651 L106.234557,70.3066276 L105.993584,71.5295701 C104.069411,71.2884689 104.309782,72.6935901 104.069411,70.3066276 L103.828439,67.9190639 L103.828439,67.9190639 C101.423522,67.9190639 100.739666,69.1227664 100.739666,69.1227664 C98.2956892,69.3632664 98.777033,70.5669689 98.2956892,69.3632664 C97.8149464,68.1595639 98.0553178,70.3258676 97.8149464,68.1595639 C97.573974,65.9938614 99.7391196,70.5669689 97.8149464,68.1595639 C95.8901721,65.7533614 94.6871131,65.9926589 94.6871131,65.9926589 L93.2442836,66.2343614 Z" id="Fill-18"></path>
                                        <path d="M110.484323,11.277526 L110.484323,14.1653297 C110.484323,13.6843297 108.719997,13.5779085 107.998883,12.7487847 C107.277168,11.9190597 106.31448,11.277526 106.31448,11.277526 C106.31448,11.277526 104.710602,12.6159085 104.229859,12.7487847 C103.748515,12.8822622 103.267171,15.289066 103.267171,15.289066 L103.908963,17.3748022 C103.908963,17.3748022 102.62598,17.8558022 102.144637,17.3748022 C101.663894,16.893201 100.541359,14.7004422 99.7397206,14.4334872 C98.9374809,14.1653297 97.9753943,13.5779085 97.1737556,14.4334872 C96.3715159,15.289066 96.211068,17.6423585 95.7297242,17.5888472 C95.2489814,17.535336 94.1264468,19.300606 93.4846551,19.4605385 C92.8428634,19.6210722 92.2022735,19.4605385 92.2022735,19.4605385 C92.2022735,19.4605385 93.4846551,21.546876 93.4846551,22.027876 C93.4846551,22.5094772 95.2489814,24.2747472 95.2489814,24.2747472 C95.2489814,24.2747472 96.6924118,25.7189497 96.6924118,25.2373485 C96.6924118,24.7563485 98.6165851,24.7563485 98.777033,26.1999497 C98.9374809,27.6441522 99.8995676,27.804686 101.342998,27.162551 C102.786428,26.5210172 104.229859,25.8788822 104.390307,25.558416 C104.550755,25.2373485 105.512841,24.435281 105.512841,24.435281 L105.994185,23.312146 L107.998883,22.9910785 L107.998883,25.0768147 C107.998883,25.0768147 108.559549,26.3604835 107.998883,26.8414835 C107.437616,27.3230847 107.597463,28.1257535 106.31448,28.446821 L105.031498,28.7672872 L104.069411,30.3720235 C104.069411,30.3720235 105.512841,33.2604285 105.031498,33.4209622 C104.550755,33.5808947 102.946876,33.4209622 102.946876,33.4209622 C102.946876,33.4209622 102.465533,31.1746922 101.342998,30.5325572 C100.220463,29.8904222 100.220463,30.5325572 99.5792726,30.5325572 C98.9374809,30.5325572 98.1358422,32.458361 98.1358422,32.458361 L99.0979289,35.0250972 L101.342998,37.2713672 L100.220463,38.716171 C100.220463,38.716171 100.862255,38.2345697 99.4182238,39.6787722 C97.9753943,41.1229747 99.5786717,42.4060422 98.9374809,42.7271097 C98.2962901,43.0481772 96.5319639,42.0849747 96.0506201,42.7271097 C95.5698772,43.3692447 94.6071896,45.9365822 94.6071896,45.9365822 L95.8901721,47.8617847 L95.5698772,48.8778972 C95.5698772,48.8778972 94.4473426,50.108656 93.3248081,50.589656 C92.2022735,51.0712572 90.7582421,52.6759935 90.7582421,52.6759935 L90.7582421,54.7653372 L91.5604818,56.6869322 C91.5604818,56.6869322 91.4000339,60.2174722 91.7203288,59.735871 C92.0412246,59.2542697 92.8428634,59.7803635 92.8428634,59.7803635 C92.8428634,59.7803635 96.6924118,62.3032085 97.9753943,62.3032085 C99.2583768,62.3032085 104.390307,63.2658097 104.550755,62.3032085 C104.710602,61.3406072 105.833737,60.0569385 105.833737,60.0569385 L105.352393,58.7732697 C105.352393,58.7732697 105.191945,58.7732697 103.748515,58.4522022 C102.305686,58.1311347 100.220463,57.970601 99.4182238,57.8100672 C98.6165851,57.6501347 96.3715159,57.6501347 96.211068,57.0079997 C96.0506201,56.3658647 95.7297242,54.7653372 95.7297242,54.7653372 L96.5319639,53.478061 L101.824342,53.7985272 L103.748515,54.1195947 C103.748515,54.1195947 106.31448,53.316926 106.795824,52.9964597 C107.277168,52.6759935 107.998883,51.8733247 107.998883,51.8733247 C107.998883,51.8733247 108.719997,50.7501897 107.998883,50.2691897 C107.277168,49.7869872 106.635376,49.0919422 106.31448,48.8778972 C105.994185,48.6638522 106.956272,49.3059872 106.635376,49.0919422 C106.31448,48.8778972 106.154032,47.8617847 106.154032,47.8617847 C106.154032,47.8617847 106.635376,47.3807847 107.277168,46.7386497 C107.918358,46.097116 110.323875,43.850846 110.484323,43.0481772 C110.644771,42.2455085 111.126115,43.8502447 110.644771,42.2455085 C110.163428,40.6413735 111.767306,40.962441 110.163428,40.6413735 C108.559549,40.320306 108.719997,42.0849747 108.559549,40.320306 C108.399702,38.5556372 107.75731,38.3415922 109.040893,37.0044122 C110.323875,35.6672322 109.864165,35.9876985 110.895959,35.185631 C111.927754,34.3835635 112.568945,34.3835635 112.568945,34.3835635 C112.568945,34.3835635 115.663727,35.827766 115.158947,35.0250972 C114.653566,34.2230297 115.937149,31.816226 117.059684,30.050956 C118.181617,28.2862872 119.144305,27.9646185 119.144305,27.9646185 C120.267441,27.3230847 123.474596,25.0768147 123.474596,24.1142135 C123.474596,23.1516122 123.955339,23.4720785 122.51251,22.3489435 C121.069079,21.2258085 120.106392,22.189011 120.106392,22.189011 C119.304753,21.0652747 119.465201,20.7448085 120.587735,19.9421397 C121.71027,19.1400722 123.551515,18.3374035 123.551515,18.3374035 C123.551515,18.3374035 124.597131,18.8190047 125.719665,16.7326672 C126.8422,14.6475322 128.124582,13.2027285 127.163096,12.7217285 C126.201009,12.2401272 126.8422,11.9190597 126.360856,11.277526 C125.880113,10.6359922 125.719665,10.4754585 125.238923,9.51285725 C124.757579,8.54965475 124.276235,7.42651975 123.474596,7.908121 C122.672357,8.389121 121.870718,8.87072225 121.870718,8.87072225 C120.587735,8.22858725 120.587735,8.961511 119.144305,7.792681 C117.700875,6.623851 118.182218,6.30338475 116.578941,6.4639185 C114.975063,6.623851 113.210736,7.5870535 113.210736,7.5870535 L111.606858,8.54965475 L110.484323,11.277526 Z" id="Fill-20"></path>
                                        <path d="M89.7968766,23.9536798 C89.7968766,23.9536798 89.4747789,24.9168823 88.8335881,26.3604835 C88.1929983,27.804686 88.5138941,30.3720235 88.0325503,30.8536248 C87.5518075,31.335226 87.5518075,33.0998948 87.0704637,33.2604285 C86.5891199,33.4209623 87.3913595,35.827766 87.0704637,36.1488335 C86.7495678,36.469901 88.354648,37.9135023 88.354648,37.9135023 L90.7583623,38.8761035 L89.6364287,40.8019073 L90.7583623,42.4060423 C90.7583623,42.4060423 91.0798591,44.4923798 91.400154,43.6903123 C91.7210499,42.8876435 93.6458241,41.9250423 93.6458241,40.962441 C93.6458241,39.9992385 94.4480638,39.839306 94.4480638,39.839306 C94.4480638,39.839306 95.4101504,40.1597723 95.8908933,39.6787723 C96.372237,39.197171 97.0134278,39.197171 97.3343237,37.9135023 C97.6552195,36.6298335 98.2970113,35.9882998 97.3343237,35.5066985 C96.372237,35.0256985 95.4095495,33.0998948 95.0892545,32.458361 C94.7683587,31.816226 94.7683587,30.6936923 94.2870149,29.4094223 C93.806272,28.1257535 93.96672,27.0026185 93.96672,27.0026185 C93.96672,27.0026185 92.3922871,26.3604835 92.3772639,25.8794835 C92.3628416,25.3978823 93.3249283,25.8794835 92.3628416,25.3978823 C91.400154,24.9168823 89.7968766,23.9536798 89.7968766,23.9536798" id="Fill-22"></path>
                                        <path d="M85.9480493,50.4292425 C85.9480493,50.4292425 85.6265525,50.9108438 84.9853617,51.5523775 C84.3441709,52.1945125 84.9853617,53.0031938 85.4667055,54.7648563 C85.9480493,56.52712 85.4667055,56.3665863 85.9480493,57.650255 C86.4287922,58.9333225 85.9480493,60.377525 85.9480493,60.377525 L86.9125397,62.7308175 C86.9125397,62.7308175 88.5128124,63.960975 88.8337083,62.7308175 C89.1552051,61.5012613 88.9935553,61.01966 88.8337083,59.5754575 C88.6744622,58.131255 89.3150521,57.4897213 88.8337083,56.2054513 C88.3529654,54.9223838 88.6732604,54.76185 88.8337083,54.119715 C88.9947572,53.4781813 88.4022416,53.1571138 89.0193952,52.51558 C89.6365489,51.873445 90.2783406,50.5897763 89.6365489,50.4292425 C88.9947572,50.2687088 85.9480493,50.4292425 85.9480493,50.4292425" id="Fill-24"></path>
                                        <path d="M78.8105202,51.8736855 C78.7311976,52.0342193 79.3729893,50.1084155 78.0894059,51.8736855 C76.8064234,53.6383543 78.0894059,55.564158 78.0894059,55.564158 L78.9018613,56.8183655 C78.9018613,56.8183655 80.4955239,55.8852255 80.9762668,57.6498943 C81.4576105,59.4151643 80.9762668,60.698833 80.9762668,60.698833 L81.1901973,61.6614343 C81.1901973,61.6614343 83.5428327,61.821968 83.8631276,60.2172318 C84.1840235,58.6124955 84.7158453,56.8183655 84.7158453,56.8183655 L84.7158453,53.9594218 C84.7158453,53.9594218 83.7026797,52.1941518 83.2213359,52.3546855 C82.740593,52.5152193 81.579599,52.5152193 81.117485,52.675753 C80.6553709,52.8362868 81.538135,52.194753 80.174628,52.0342193 L78.8105202,51.8736855 Z" id="Fill-26"></path>
                                        <path d="M64.6186305,54.7650968 C63.0147521,54.7620905 62.3140694,55.941743 62.02322,56.3950855 C61.7317696,56.8478268 62.02322,58.6130968 62.02322,58.6130968 L63.2557245,60.8587655 L64.6186305,61.6662443 C64.6186305,61.6662443 65.7411651,61.8309868 66.2219079,61.6662443 C66.7032517,61.5009005 66.3823559,62.0354118 67.1845955,62.731058 C67.9862342,63.4267043 67.6653384,63.4796143 68.7878729,62.731058 C69.9104075,61.9825018 71.033543,63.9612155 71.3538379,62.731058 C71.6747338,61.5009005 72.9577163,61.6614343 73.2786121,60.3777655 C73.5989071,59.0940968 74.2406988,56.8183655 74.2406988,56.8183655 C74.2406988,56.8183655 74.0802509,56.9043443 73.5989071,56.3950855 C73.1181642,55.8852255 72.9577163,56.3728393 72.6368204,54.7650968 L72.3159246,53.1573543 C72.3159246,53.1573543 70.2084681,53.317888 70.2198857,53.9594218 C70.2313034,54.6015568 70.2198857,56.3950855 70.2198857,56.3950855 L70.8730951,58.933563 C69.4296646,59.4151643 68.4687799,60.698833 68.0673596,59.0940968 C67.6653384,57.4893605 68.1466821,58.6124955 67.6653384,57.4893605 C67.1845955,56.3662255 67.8251854,57.4893605 67.1845955,56.3662255 L66.5428038,55.2430905 L64.6186305,54.7650968 Z" id="Fill-28"></path>
                                        <path d="M78.8105202,70.3066276 L78.5707497,69.6843339 L81.117485,71.9306039 C81.4576105,72.8938064 81.7779055,73.8558064 81.7779055,73.8558064 C81.7779055,73.8558064 82.7405931,76.0209076 83.2213359,75.8206914 C83.7026797,75.6210764 84.4454274,76.6630426 84.7158453,75.8206914 C84.9856622,74.9795426 86.4290926,74.1768739 86.2686447,73.6958739 C86.1081968,73.2142726 86.6141786,72.7332726 86.2812642,72.0911376 C85.9477488,71.4496039 84.2849795,71.2493876 84.7158453,70.3066276 C85.1461101,69.3632664 85.7873009,65.9854439 85.7873009,65.9854439 C85.7873009,65.9854439 85.2470661,66.4592289 84.7158453,65.9854439 C84.1840235,65.5122601 82.2207898,64.8701251 81.117485,65.1917939 C80.0141801,65.5122601 79.6932843,66.9564626 79.6932843,66.9564626 C79.6932843,66.9564626 79.5334373,67.1681026 80.335076,67.7038164 C81.1367147,68.2401314 81.117485,70.6294989 81.117485,70.6294989" id="Fill-30"></path>
                                    </g>
                                    <path d="M291.00555,237.843136 C283.960263,220.708113 231.085159,207.480011 231.085159,207.480011 L230.838778,211.989386 C229.988465,211.636453 229.057025,211.439844 228.078714,211.439844 L211.323623,211.439844 C210.946841,211.439844 210.579674,211.477121 210.218515,211.533038 L209.996773,207.480011 C209.996773,207.480011 157.121068,220.708113 150.075781,237.843136 C143.030495,254.97816 128.60881,299.16763 128.60881,299.16763 L211.323623,299.16763 L215.004912,299.16763 L226.07702,299.16763 L228.078714,299.16763 L312.473122,299.16763 C312.473122,299.16763 298.051437,254.97816 291.00555,237.843136" id="Fill-33" fill="#00376A"></path>
                                    <path d="M228.765395,203.423317 C228.765395,207.407801 225.536605,210.638317 221.554252,210.638317 L216.561136,210.638317 C212.578783,210.638317 209.349993,207.407801 209.349993,203.423317 L209.349993,187.175137 C209.349993,183.191255 212.578783,179.960137 216.561136,179.960137 L221.554252,179.960137 C225.536605,179.960137 228.765395,183.191255 228.765395,187.175137 L228.765395,203.423317 Z" id="Fill-35" fill="#D3A57F"></path>
                                    <path d="M272.822172,146.431972 C272.822172,151.12052 269.024304,154.921021 264.337061,154.921021 C259.649818,154.921021 255.850748,151.12052 255.850748,146.431972 C255.850748,141.743425 259.649818,137.941721 264.337061,137.941721 C269.024304,137.941721 272.822172,141.743425 272.822172,146.431972" id="Fill-37" fill="#F8CDA5"></path>
                                    <path d="M180.994518,146.431972 C180.994518,151.12052 177.194846,154.921021 172.508805,154.921021 C167.822764,154.921021 164.023093,151.12052 164.023093,146.431972 C164.023093,141.743425 167.822764,137.941721 172.508805,137.941721 C177.194846,137.941721 180.994518,141.743425 180.994518,146.431972" id="Fill-39" fill="#F8CDA5"></path>
                                    <path d="M264.337001,144.183177 C264.337001,169.554123 243.781037,190.121683 218.422452,190.121683 C193.064469,190.121683 172.508505,169.554123 172.508505,144.183177 C172.508505,118.81163 193.064469,98.2452721 218.422452,98.2452721 C243.781037,98.2452721 264.337001,118.81163 264.337001,144.183177" id="Fill-41" fill="#F8CDA5"></path>
                                    <path d="M187.947742,137.8451 C188.864158,141.775471 191.421109,145.132851 195.761015,145.147883 C199.997562,145.162313 203.586908,142.334033 206.016462,139.10532 C207.17986,137.559506 204.572431,136.059989 203.422254,137.588366 C199.782429,142.42422 192.581502,144.493121 190.844819,137.046039 C190.406141,135.162323 187.507862,135.95958 187.947742,137.8451" id="Fill-43" fill="#5B2A2A"></path>
                                    <path d="M248.127433,137.045919 C246.39075,144.493603 239.18802,142.422296 235.549397,137.588246 C234.400422,136.061673 231.790589,137.558184 232.955189,139.1052 C235.384743,142.333913 238.974089,145.162193 243.211237,145.147763 C247.551744,145.132731 250.108094,141.775953 251.02451,137.84498 C251.463789,135.963068 248.567313,135.159798 248.127433,137.045919" id="Fill-45" fill="#5B2A2A"></path>
                                    <path d="M216.50549,146.520476 C213.481618,148.248469 211.745535,152.017705 212.762306,155.433406 C213.853592,159.098025 217.434526,159.170175 220.219229,157.297281 C221.177109,156.653343 220.275716,155.090093 219.309423,155.740044 C217.252444,157.12352 214.873368,157.289465 214.364983,154.387231 C213.922699,151.861981 215.228517,149.327713 217.415296,148.077714 C218.422452,147.502318 217.515651,145.943276 216.50549,146.520476" id="Fill-47" fill="#5B2A2A"></path>
                                    <path d="M254.090688,100.401114 C251.174382,98.4801204 248.883041,97.2830316 247.088067,96.6276691 C247.092875,96.4821666 247.106696,96.3384679 247.106696,96.1923641 C247.106696,84.1276816 230.646662,74.3471479 210.343088,74.3471479 C190.038913,74.3471479 173.57948,84.1276816 173.57948,96.1923641 C173.57948,99.3513316 174.717038,102.350968 176.747575,105.062004 C165.07574,119.741523 175.800512,145.87305 175.929111,147.299215 C174.456235,135.937394 182.533916,121.799602 188.118947,113.591938 C194.292286,116.379934 201.990181,118.03758 210.343088,118.03758 C224.342921,118.03758 236.513527,113.386912 242.722321,106.543484 C242.790827,106.716043 242.833493,106.814648 242.833493,106.814648 C242.833493,106.814648 262.242284,130.202672 260.027261,147.299215 C260.170883,145.7047 273.563177,113.22758 254.090688,100.401114" id="Fill-49" fill="#FE8C0C"></path>
                                    <path d="M189.165464,125.652171 C190.278984,122.781804 194.940387,120.169372 197.471498,122.70785 C198.838611,124.079301 200.963494,121.953882 199.595781,120.582431 C195.31777,116.29131 188.182945,119.917449 186.268387,124.85311 C185.568305,126.657461 188.471992,127.439086 189.165464,125.652171" id="Fill-51" fill="#E07710"></path>
                                    <path d="M250.038326,123.563609 C247.966324,118.220901 240.244392,114.297144 235.613637,118.941199 C234.13355,120.425084 236.432702,122.726669 237.91339,121.241581 C240.654226,118.492666 245.69842,121.323351 246.902681,124.428808 C247.651438,126.360023 250.797299,125.520076 250.038326,123.563609" id="Fill-53" fill="#E07710"></path>
                                    <path d="M208.287912,170.807369 C214.092281,177.867848 224.412028,175.93543 229.64251,169.204436 C230.814922,167.695299 228.703259,165.552444 227.517627,167.078416 C223.247428,172.574443 215.259285,174.577206 210.412796,168.681349 C209.183296,167.186641 207.068027,169.324085 208.287912,170.807369" id="Fill-55" fill="#F84D11"></path>
                                    <path d="M169.222988,140.54808 C169.222988,113.591637 191.049916,91.7386048 217.976323,91.7386048 C244.90213,91.7386048 266.729658,113.591637 266.729658,140.54808" id="Stroke-57" stroke="#013668" stroke-width="6.282"></path>
                                    <path d="M173.487598,156.849891 C173.487598,160.834375 170.25941,164.064891 166.276455,164.064891 L163.572276,164.064891 C159.589923,164.064891 156.361134,160.834375 156.361134,156.849891 L156.361134,136.014775 C156.361134,132.030291 159.589923,128.799775 163.572276,128.799775 L166.276455,128.799775 C170.25941,128.799775 173.487598,132.030291 173.487598,136.014775 L173.487598,156.849891 Z" id="Fill-59" fill="#013668"></path>
                                    <path d="M280.484012,156.849891 C280.484012,160.834375 277.255222,164.064891 273.272869,164.064891 L270.56869,164.064891 C266.585736,164.064891 263.357547,160.834375 263.357547,156.849891 L263.357547,136.014775 C263.357547,132.030291 266.585736,128.799775 270.56869,128.799775 L273.272869,128.799775 C277.255222,128.799775 280.484012,132.030291 280.484012,136.014775 L280.484012,156.849891 Z" id="Fill-61" fill="#013668"></path>
                                    <path d="M240.984736,175.564699 C252.395168,170.404171 263.112128,163.917284 274.035808,157.827824 C275.725018,156.886267 274.21188,154.288266 272.519064,155.232228 C261.595985,161.321688 250.878424,167.808574 239.467993,172.969103 C237.709075,173.764557 239.234832,176.355944 240.984736,175.564699" id="Fill-63" fill="#013668"></path>
                                    <path d="M243.617825,173.090736 C244.454318,175.254635 243.379857,177.68609 241.217115,178.52303 L238.234106,179.676829 C236.071364,180.513769 233.640608,179.437531 232.804716,177.273632 C231.968224,175.109734 233.043285,172.677677 235.206027,171.841339 L238.189036,170.68754 C240.351778,169.8506 242.781332,170.926837 243.617825,173.090736" id="Fill-65" fill="#013668"></path>
                                    <polygon id="Fill-67" fill="#E5E5E5" points="207.547448 211.439784 218.364162 295.21375 232.038292 210.638318"></polygon>
                                    <path d="M227.556507,219.007056 C227.556507,222.992141 224.327717,226.222056 220.345364,226.222056 L217.808844,226.222056 C213.82589,226.222056 210.597701,222.992141 210.597701,219.007056 L210.597701,218.654724 C210.597701,214.669639 213.82589,211.439724 217.808844,211.439724 L220.345364,211.439724 C224.327717,211.439724 227.556507,214.669639 227.556507,218.654724 L227.556507,219.007056 Z" id="Fill-69" fill="#45ABD0"></path>
                                    <polygon id="Fill-71" fill="#FFFFFF" points="237.13675 207.43125 230.662947 199.01375 219.288571 210.178962 207.913594 199.01375 201.43979 207.43125 204.862679 223.865817 219.288571 211.05318 233.713861 223.865817"></polygon>
                                </g>
                                <g id="Group-76" stroke-width="1" fill="none" transform="translate(315.506167, 353.535000)">
                                    <mask id="mask-6" fill="white">
                                        <use xlink:href="#path-5"></use>
                                    </mask>
                                    <g id="Clip-75"></g>
                                    <polygon id="Fill-74" fill="#45ABD0" mask="url(#mask-6)" points="26.7677022 71.7736175 -4.40366466 71.7736175 6.77360676 0.2008175 13.5568885 0.2008175"></polygon>
                                </g>
                                <g id="Group-101" stroke-width="1" fill="none" transform="translate(125.011810, 234.487500)">
                                    <path d="M179.249842,108.712794 C175.82515,114.683207 172.80969,120.864658 169.945064,127.117057 C167.100268,133.325564 163.965825,139.808242 159.121138,144.724663 C158.509994,145.345153 158.383198,146.333007 158.816468,147.088177 C162.391392,153.322538 170.172816,156.729822 176.602751,159.149252 C176.060714,157.816882 175.519277,156.485113 174.977841,155.152743 C172.665467,159.316399 169.517804,162.922095 167.132117,167.041259 C166.53239,168.076612 166.573855,169.856312 167.59964,170.666195 C174.8222,176.366647 182.680543,181.382875 189.073221,188.06156 C191.941453,191.05819 196.485675,186.503722 193.621049,183.5113 C187.02766,176.622779 178.78893,171.674492 171.222638,165.968028 C171.58019,167.332264 171.937743,168.6965 172.295295,170.060737 C174.58243,165.901289 177.570847,162.15971 179.673496,157.899253 C180.460713,156.303535 179.814114,154.443268 178.048586,153.902143 C172.744189,152.277565 165.52223,149.856933 162.182869,145.119083 L161.877598,147.482597 C166.32507,142.037075 169.656017,136.144825 172.493001,129.720469 C175.420124,123.091688 177.551618,116.125004 181.009361,109.741533 C181.633725,108.588937 179.904253,107.571622 179.249842,108.712794" id="Fill-77" fill="#052A44"></path>
                                    <path d="M220.186899,109.741773 C223.644642,116.125245 225.775535,123.090726 228.703259,129.720108 C231.540843,136.146268 234.869988,142.036113 239.318061,147.482837 L239.01339,145.119323 C235.672828,149.858977 228.456878,152.276603 223.147674,153.902383 C221.382146,154.442907 220.735547,156.303776 221.522763,157.898892 C223.624811,162.159951 226.61383,165.900928 228.900964,170.060376 C229.258517,168.69614 229.616069,167.331903 229.973622,165.968268 C222.406729,171.674732 214.1692,176.622418 207.575211,183.51094 C204.711786,186.502158 209.253004,191.059633 212.123038,188.0612 C218.515116,181.383717 226.37466,176.366887 233.59662,170.665835 C234.622405,169.855951 234.671681,168.090681 234.064142,167.040898 C231.678456,162.921735 228.530191,159.31664 226.218419,155.152382 C225.676982,156.484752 225.134945,157.817122 224.593508,159.149492 C231.022843,156.730062 238.804267,153.323981 242.379792,147.088417 C242.813061,146.332045 242.685665,145.344792 242.075121,144.724903 C237.229834,139.808482 234.095992,133.325805 231.251196,127.117297 C228.386569,120.864898 225.37111,114.682846 221.946418,108.713035 C221.292607,107.573065 219.561933,108.587975 220.186899,109.741773" id="Fill-79" fill="#052A44"></path>
                                    <path d="M198.021348,122.547436 C199.483407,122.783126 201.292803,123.13125 202.73383,122.66949 C203.339566,122.475888 203.340167,121.632334 202.73383,121.437529 C201.292803,120.97637 199.483407,121.324494 198.021348,121.560184 C197.532793,121.638948 197.532793,122.468673 198.021348,122.547436" id="Fill-81" fill="#052A44"></path>
                                    <path d="M143.922994,160.10542 C141.913489,165.579801 140.644928,171.285062 139.477324,176.988519 C138.37462,182.375118 136.93119,187.850702 136.586858,193.347931 C136.518352,194.440402 138.258641,194.969502 138.721356,193.926333 C140.955008,188.895073 141.55173,183.22228 142.633401,177.859129 C143.783578,172.152064 145.035313,166.442594 147.028593,160.962201 C147.73889,159.008739 144.632089,158.173002 143.922994,160.10542" id="Fill-83" fill="#052A44"></path>
                                    <path d="M257.203318,160.962081 C259.196598,166.442474 260.447731,172.151944 261.598509,177.859009 C262.678979,183.221558 263.276903,188.895554 265.509953,193.926213 C265.972067,194.968179 267.712957,194.440883 267.644452,193.347811 C267.30012,187.849981 265.856689,182.375599 264.753985,176.988399 C263.586982,171.284942 262.318422,165.580282 260.308917,160.105299 C259.601023,158.176489 256.491818,159.005012 257.203318,160.962081" id="Fill-85" fill="#052A44"></path>
                                    <polygon id="Fill-87" fill="#FFFFFF" points="32.5690065 89.5046604 35.854884 106.092547 52.4333014 109.380182 35.854884 112.667215 32.5690065 129.255102 29.2831291 112.667215 12.7047117 109.380182 29.2831291 106.092547"></polygon>
                                    <polygon id="Fill-89" fill="#FFFFFF" points="353.310786 85.2460066 356.596663 101.833893 373.17508 105.121528 356.596663 108.408562 353.310786 124.996448 350.024307 108.408562 333.44589 105.121528 350.024307 101.833893"></polygon>
                                    <polygon id="Fill-91" fill="#FFFFFF" points="12.7045915 59.5366769 14.7669783 69.9467194 25.1714556 72.0102094 14.7669783 74.0736994 12.7045915 84.4837419 10.6422046 74.0736994 0.237727343 72.0102094 10.6422046 69.9467194"></polygon>
                                    <polygon id="Fill-93" fill="#FFFFFF" points="311.539219 27.0926256 313.601606 37.5032694 324.005482 39.5661581 313.601606 41.6296481 311.539219 52.0396906 309.476832 41.6296481 299.072956 39.5661581 309.476832 37.5032694"></polygon>
                                    <polygon id="Fill-95" fill="#FFFFFF" points="88.0955877 140.556257 89.885153 149.588234 98.9117011 151.378757 89.885153 153.169279 88.0955877 162.201257 86.3066234 153.169279 77.2794744 151.378757 86.3066234 149.588234"></polygon>
                                    <polygon id="Fill-97" fill="#FFFFFF" points="332.241929 163.835935 334.304316 174.245978 344.708193 176.309468 334.304316 178.372958 332.241929 188.783 330.179543 178.372958 319.775666 176.309468 330.179543 174.245978"></polygon>
                                    <polygon id="Fill-99" fill="#FFFFFF" points="81.718053 0.032287125 83.7804399 10.4423296 94.1849171 12.5058196 83.7804399 14.5693096 81.718053 24.9793521 79.6556661 14.5693096 69.2511889 12.5058196 79.6556661 10.4423296"></polygon>
                                </g>
                            </g>
                        </g>
                    </g>
                </g>
            </g>
        </g>
    </g>
</svg>