<svg width="22" height="39" viewBox="0 0 22 39" version="1.1" xmlns="http://www.w3.org/2000/svg" xmlns:xlink="http://www.w3.org/1999/xlink">
<g id="Canvas" fill="none">
<g id="the-tube-terminal">
<path id="Shape" fill-rule="evenodd" clip-rule="evenodd" d="M 0.568359 38.9681L 21.1699 38.9681C 21.4844 38.9681 21.7383 38.7113 21.7402 38.3945L 21.7402 2.69446C 21.7402 1.20862 20.541 0 19.0664 0L 2.67383 0C 1.19922 0 0 1.20862 0 2.69446L 0 38.3945C 0 38.7113 0.253906 38.9681 0.568359 38.9681ZM 20.6016 37.821L 1.13867 37.821L 1.13867 26.7964L 20.6016 26.7964L 20.6016 37.821ZM 1.13867 25.6495L 20.6016 25.6495L 20.6016 2.6944C 20.6016 1.84119 19.9141 1.14703 19.0664 1.14703L 2.67383 1.14703C 1.82812 1.14703 1.13867 1.84119 1.13867 2.6944L 1.13867 25.6495ZM 8.99219 24.3212L 9.28906 24.3212C 9.60352 24.3212 9.85938 24.0645 9.85938 23.7477C 9.85938 23.431 9.60352 23.1742 9.28906 23.1742L 8.99219 23.1742C 8.67773 23.1742 8.42383 23.431 8.42383 23.7477C 8.42383 24.0645 8.67773 24.3212 8.99219 24.3212ZM 6.84961 24.3212L 6.55273 24.3212C 6.23828 24.3212 5.98438 24.0645 5.98438 23.7477C 5.98438 23.431 6.23828 23.1742 6.55273 23.1742L 6.84961 23.1742C 7.16406 23.1742 7.41992 23.431 7.41992 23.7477C 7.41992 24.0645 7.16406 24.3212 6.84961 24.3212ZM 4.11523 24.3212L 4.41211 24.3212C 4.72656 24.3212 4.98242 24.0645 4.98242 23.7477C 4.98242 23.431 4.72656 23.1742 4.41211 23.1742L 4.11523 23.1742C 3.80078 23.1742 3.54688 23.431 3.54688 23.7477C 3.54688 24.0645 3.80078 24.3212 4.11523 24.3212ZM 17.623 23.5187L 13.2207 23.5187C 12.9062 23.5187 12.6523 23.262 12.6523 22.9452L 12.6523 20.086C 12.6523 19.7692 12.9062 19.5125 13.2207 19.5125L 17.623 19.5125C 17.9375 19.5125 18.1934 19.7692 18.1934 20.086L 18.1934 22.9452C 18.1934 23.2618 17.9375 23.5187 17.623 23.5187ZM 17.0527 22.3716L 13.7891 22.3716L 13.7891 20.6595L 17.0527 20.6595L 17.0527 22.3716ZM 9.28906 22.4904L 8.99219 22.4904C 8.67773 22.4904 8.42383 22.2336 8.42383 21.9169C 8.42383 21.6001 8.67773 21.3433 8.99219 21.3433L 9.28906 21.3433C 9.60352 21.3433 9.85938 21.6001 9.85938 21.9169C 9.85938 22.2336 9.60352 22.4904 9.28906 22.4904ZM 6.55273 22.4904L 6.84961 22.4904C 7.16406 22.4904 7.41992 22.2336 7.41992 21.9169C 7.41992 21.6001 7.16406 21.3433 6.84961 21.3433L 6.55273 21.3433C 6.23828 21.3433 5.98438 21.6001 5.98438 21.9169C 5.98438 22.2336 6.23828 22.4904 6.55273 22.4904ZM 4.41211 22.4904L 4.11523 22.4904C 3.80078 22.4904 3.54688 22.2336 3.54688 21.9169C 3.54688 21.6001 3.80078 21.3433 4.11523 21.3433L 4.41211 21.3433C 4.72656 21.3433 4.98242 21.6001 4.98242 21.9169C 4.98242 22.2336 4.72656 22.4904 4.41211 22.4904ZM 8.99219 20.6595L 9.28906 20.6595C 9.60352 20.6595 9.85938 20.4028 9.85938 20.086C 9.85938 19.7692 9.60352 19.5125 9.28906 19.5125L 8.99219 19.5125C 8.67773 19.5125 8.42383 19.7692 8.42383 20.086C 8.42383 20.4028 8.67773 20.6595 8.99219 20.6595ZM 6.84961 20.6595L 6.55273 20.6595C 6.23828 20.6595 5.98438 20.4028 5.98438 20.086C 5.98438 19.7692 6.23828 19.5125 6.55273 19.5125L 6.84961 19.5125C 7.16406 19.5125 7.41992 19.7692 7.41992 20.086C 7.41992 20.4028 7.16406 20.6595 6.84961 20.6595ZM 4.11523 20.6595L 4.41211 20.6595C 4.72656 20.6595 4.98242 20.4028 4.98242 20.086C 4.98242 19.7692 4.72656 19.5125 4.41211 19.5125L 4.11523 19.5125C 3.80078 19.5125 3.54688 19.7692 3.54688 20.086C 3.54688 20.4028 3.80078 20.6595 4.11523 20.6595ZM 17.623 18.0511L 4.11523 18.0511C 3.80078 18.0511 3.54688 17.7944 3.54688 17.4776L 3.54688 4.43591C 3.54688 4.11914 3.80078 3.86237 4.11523 3.86237L 17.623 3.86237C 17.9375 3.86237 18.1914 4.11914 18.1914 4.43591L 18.1914 17.4776C 18.1914 17.7944 17.9375 18.0511 17.623 18.0511ZM 17.0547 16.904L 4.68555 16.904L 4.68555 5.0094L 17.0547 5.0094L 17.0547 16.904Z" transform="translate(0.115234 0)" fill="white"/>
</g>
</g>
</svg>
