<svg width="110" height="25" viewBox="0 0 110 25" version="1.1" xmlns="http://www.w3.org/2000/svg" xmlns:xlink="http://www.w3.org/1999/xlink">
<g id="Canvas" fill="none">
<path id="Union" fill-rule="evenodd" clip-rule="evenodd" d="M 12.5 25C 15.543 25 18.332 23.9127 20.5 22.1053C 22.668 23.9127 25.457 25 28.5 25C 35.4043 25 41 19.4036 41 12.5C 41 5.59644 35.4043 0 28.5 0C 25.457 0 22.668 1.08734 20.5 2.89465C 18.332 1.08734 15.543 0 12.5 0C 5.5957 0 0 5.59644 0 12.5C 0 19.4036 5.5957 25 12.5 25ZM 89.375 19.279C 93.4629 19.279 96.1172 17.367 96.1465 14.404C 96.1621 12.783 95.125 11.546 92.8789 10.531C 91.5195 9.86902 90.6875 9.42902 90.6953 8.76099C 90.6953 8.16803 91.4004 7.534 92.9238 7.534C 94.1953 7.51404 95.1172 7.79199 95.832 8.08002L 96.1836 8.245L 96.7109 5.15302C 95.9395 4.86401 94.7324 4.55402 93.2266 4.55402C 89.3848 4.55402 86.6777 6.48901 86.6562 9.26202C 86.6309 11.311 88.5859 12.455 90.0605 13.138C 91.5762 13.838 92.084 14.283 92.0762 14.908C 92.0645 15.863 90.8691 16.301 89.752 16.301C 88.1953 16.301 87.3672 16.086 86.0918 15.554L 85.5898 15.326L 85.043 18.519C 85.9531 18.918 87.6328 19.261 89.375 19.279ZM 106.688 4.81403L 103.684 4.81403C 102.75 4.81403 102.057 5.06805 101.646 5.99805L 95.873 19.072L 99.9551 19.072C 99.9551 19.072 100.621 17.314 100.773 16.929L 105.752 16.935C 105.867 17.433 106.227 19.072 106.227 19.072L 109.834 19.072L 106.688 4.81403ZM 101.893 14.01L 103.441 10.023L 103.553 9.72565L 103.635 9.51154L 103.959 8.66101L 104.221 9.89099L 105.123 14.01L 101.893 14.01ZM 62 4.96204L 62.0508 4.67603L 68.0781 4.67603C 68.8906 4.70703 69.5469 4.966 69.7715 5.83502L 71.082 12.139C 69.7949 8.84204 66.6914 6.099 62 4.96204ZM 73.457 19.051L 79.5801 4.81201L 75.4609 4.815L 71.6543 14.544L 71.248 13.075C 70.4961 11.305 68.3652 8.763 65.8613 7.16101L 69.3438 19.058L 73.457 19.051ZM 81.1543 4.79999L 85.043 4.79999L 82.6113 19.066L 78.7227 19.066L 81.1543 4.79999Z" fill="white"/>
</g>
</svg>
