<!-- Generator: Adobe Illustrator 21.1.0, SVG Export Plug-In  -->
<svg version="1.1"
	 xmlns="http://www.w3.org/2000/svg" xmlns:xlink="http://www.w3.org/1999/xlink" xmlns:a="http://ns.adobe.com/AdobeSVGViewerExtensions/3.0/"
	 x="0px" y="0px" width="32px" height="32px" viewBox="0 0 32 32" style="enable-background:new 0 0 32 32;" xml:space="preserve">
<style type="text/css">
	.st0{fill-rule:evenodd;clip-rule:evenodd;fill:#95E1D3;}
</style>
<defs>
</defs>
<g id="LINE_GRAPH_2_">
	<g>
		<path class="st0" d="M6,19c0.3,0,0.6-0.1,0.8-0.3l3.1-2l6.7,4.4c0.2,0.2,0.5,0.3,0.9,0.3c0.3,0,0.6-0.1,0.9-0.3l0,0l8.5-6l0,0
			c0.4-0.3,0.6-0.7,0.6-1.2c0-0.8-0.7-1.5-1.5-1.5c-0.3,0-0.6,0.1-0.9,0.3l-7.6,5.4l-6.6-4.4l0,0c-0.2-0.2-0.5-0.3-0.8-0.3
			c-0.3,0-0.6,0.1-0.8,0.2l0,0l-4,2.5l0,0c-0.4,0.3-0.7,0.7-0.7,1.3C4.5,18.3,5.2,19,6,19z M30.5,0h-29C0.7,0,0,0.7,0,1.5v29
			C0,31.3,0.7,32,1.5,32h29c0.8,0,1.5-0.7,1.5-1.5v-29C32,0.7,31.3,0,30.5,0z M29,29H3V3h26V29z"/>
	</g>
</g>
</svg>
