<!-- Generator: Adobe Illustrator 21.1.0, SVG Export Plug-In  -->
<svg version="1.1"
	 xmlns="http://www.w3.org/2000/svg" xmlns:xlink="http://www.w3.org/1999/xlink" xmlns:a="http://ns.adobe.com/AdobeSVGViewerExtensions/3.0/"
	 x="0px" y="0px" width="32px" height="30.5px" viewBox="0 0 32 30.5" style="enable-background:new 0 0 32 30.5;"
	 xml:space="preserve">
<style type="text/css">
	.st0{fill-rule:evenodd;clip-rule:evenodd;fill:#95E1D3;}
</style>
<defs>
</defs>
<g id="HOME_2_">
	<g>
		<path class="st0" d="M3,18.5V23v2v4c0,0.8,0.7,1.5,1.5,1.5h14v-12h6v12h3c0.8,0,1.5-0.7,1.5-1.5v-4v-2v-4.5l-13-13L3,18.5z
			 M13.5,24.5h-6v-6h6V24.5z M31.6,15L31.6,15L26,9.4V5c0-0.8-0.7-1.5-1.5-1.5S23,4.2,23,5v1.4l-5.9-5.9l0,0C16.9,0.2,16.5,0,16.2,0
			c0,0,0,0,0,0c0,0,0,0-0.1,0c0,0,0,0,0,0c0,0-0.1,0-0.1,0c0,0,0,0,0,0c-0.4,0-0.8,0.2-1.1,0.5L0.5,14.9C0.2,15.2,0,15.6,0,16
			c0,0.8,0.7,1.5,1.5,1.5c0.4,0,0.8-0.2,1.1-0.4l0,0L16,3.6v0l0,0l0,0l13.4,13.4l0,0c0.3,0.2,0.6,0.4,1,0.4c0.8,0,1.5-0.7,1.5-1.5
			C32,15.6,31.8,15.2,31.6,15z"/>
	</g>
</g>
</svg>
