<?xml version="1.0" encoding="UTF-8" standalone="no"?>
<svg width="21px" height="19px" viewBox="0 0 21 19" version="1.1" xmlns="http://www.w3.org/2000/svg" xmlns:xlink="http://www.w3.org/1999/xlink">
    <!-- Generator: Sketch 41.1 (35376) - http://www.bohemiancoding.com/sketch -->
    <title>attention</title>
    <desc>Created with Sketch.</desc>
    <defs></defs>
    <g id="Page-1" stroke="none" stroke-width="1" fill="none" fill-rule="evenodd" opacity="0.8">
        <g id="8" transform="translate(-449.000000, -259.000000)" fill="#F50000">
            <g id="Group-11" transform="translate(415.000000, 84.000000)">
                <g id="Group-12" transform="translate(28.000000, 169.000000)">
                    <g id="warning" transform="translate(6.000000, 6.000000)">
                        <g id="Capa_1">
                            <g id="attention">
                                <path d="M10.3048128,13.3503543 C9.72861602,13.3503543 9.24562757,13.8360045 9.24562757,14.4153767 C9.24562757,14.9947489 9.72861602,15.4803991 10.3048128,15.4803991 C10.8598258,15.4803991 11.363998,14.9947489 11.3385775,14.4409372 C11.363998,13.8317444 10.8852463,13.3503543 10.3048128,13.3503543 Z" id="Shape"></path>
                                <path d="M20.1086309,17.1247937 C20.7737992,15.9703094 20.778036,14.5943004 20.1171044,13.4440762 L13.4823684,1.890713 C12.8256735,0.72770852 11.6393861,0.037573991 10.3090495,0.037573991 C8.9787129,0.037573991 7.79242548,0.73196861 7.13573066,1.88645291 L0.492521116,13.4525964 C-0.168410446,14.6156009 -0.164173705,16.00013 0.505231338,17.1546143 C1.1661629,18.2963184 2.34821358,18.9821928 3.6700767,18.9821928 L16.9226019,18.9821928 C18.2487017,18.9821928 19.4392259,18.2877982 20.1086309,17.1247937 Z M18.6681391,16.2898161 C18.2995426,16.9288296 17.6470845,17.3079776 16.9183651,17.3079776 L3.66583996,17.3079776 C2.94559403,17.3079776 2.29737269,16.9373498 1.93724972,16.3111166 C1.57289002,15.6763632 1.56865327,14.9180673 1.93301298,14.2790538 L8.57622253,2.7171704 C8.9363455,2.08241704 9.58033009,1.70752915 10.3090495,1.70752915 C11.0335322,1.70752915 11.6817535,2.08667713 12.0418765,2.72143049 L18.6808493,14.2833139 C19.0367355,14.905287 19.0324988,15.6550628 18.6681391,16.2898161 Z" id="Shape"></path>
                                <path d="M10.0421348,5.87389686 C9.53796269,6.01873991 9.22444387,6.4788296 9.22444387,7.03690135 C9.24986431,7.37344843 9.27104802,7.71425561 9.29646846,8.05080269 C9.36849306,9.33308969 9.44051765,10.5898161 9.51254224,11.8721031 C9.53796269,12.3066323 9.87266521,12.6218789 10.3048128,12.6218789 C10.7369603,12.6218789 11.0758996,12.2853318 11.0970833,11.8465426 C11.0970833,11.582417 11.0970833,11.3395919 11.1225037,11.0712063 C11.1691079,10.249009 11.2199488,9.42681166 11.2665529,8.60461435 C11.2919734,8.07210314 11.3385775,7.53959193 11.363998,7.00708072 C11.363998,6.81537668 11.3385775,6.64497309 11.2665529,6.47456951 C11.0504791,5.99743946 10.546307,5.75461435 10.0421348,5.87389686 Z" id="Shape"></path>
                            </g>
                        </g>
                    </g>
                </g>
            </g>
        </g>
    </g>
</svg>