<svg width="80" height="22" viewBox="0 0 80 22" version="1.1" xmlns="http://www.w3.org/2000/svg" xmlns:xlink="http://www.w3.org/1999/xlink">
<g id="Canvas" fill="none">
<g id="webmoney-paying-logo">
<g id="Capa_1_1_">
<g id="Layer_1_copy_32_">
<path id="Shape" fill-rule="evenodd" clip-rule="evenodd" d="M 75.793 18.728L 73.6797 16.312L 71.2363 18.5648L 67.1113 13.9744L 68.2578 12.9648L 65.3711 9.7312L 66.5234 8.71997L 63.5938 5.48962L 68.168 1.37122L 69.6211 2.96161L 72.0723 0.772827L 73.5234 2.27521L 74.4883 1.40961C 74.2734 1.28479 74.0566 1.16962 73.8379 1.06561C 72.4434 0.383972 70.8789 0 69.2324 0C 63.4434 0 58.7227 4.71997 58.7227 10.5088C 58.7227 16.296 63.4434 21.016 69.2324 21.016C 71.1113 21.016 72.8828 20.5184 74.4102 19.6464C 74.9141 19.3616 75.373 19.0528 75.793 18.728ZM 17.6055 8.9856C 17.9668 8.79358 18.5781 8.54242 19.2266 8.54242C 20.7129 8.54242 21.5156 9.57281 21.5156 11.488C 21.5156 13.7312 20.4375 14.824 18.6992 14.824C 18.0625 14.824 17.0801 14.6192 16.3594 14.2368L 16.3594 5.86719L 17.6055 5.56799L 17.6055 8.9856ZM 12.8457 8.54242C 11.0488 8.54242 10.125 9.85919 10.125 11.6832C 10.125 13.5792 10.9531 14.8256 12.9668 14.8256C 13.8281 14.8256 14.5488 14.5856 15.0879 14.2704L 15.0879 13.3632C 14.4297 13.7552 13.8281 13.9856 13.1816 13.9856C 11.9492 13.9856 11.3594 13.352 11.3594 11.9104L 15.2676 11.9104L 15.2676 11.4704C 15.2695 9.51202 14.3457 8.54242 12.8457 8.54242ZM 11.3848 11.1056C 11.5156 9.90881 12.0801 9.34399 12.8125 9.34399C 13.4609 9.34399 14.0703 9.84479 14.1309 11.1056L 11.3848 11.1056ZM 18.6973 13.984C 18.3965 13.984 17.9805 13.9616 17.5957 13.7936L 17.5957 9.87201C 18.0762 9.60803 18.4238 9.47681 18.9004 9.47681C 19.7051 9.47681 20.2578 9.9696 20.2578 11.4896C 20.2578 13.4336 19.5859 13.984 18.6973 13.984ZM 44.0469 14.68L 44.0469 10.3408C 44.0469 9.10559 43.5059 8.54236 42.0684 8.54077C 40.6895 8.54077 39.5508 9.10394 39.0117 9.42719L 39.0117 14.6783L 40.2559 14.6783L 40.2559 9.93115C 40.627 9.71515 41.2402 9.49915 41.7188 9.49915C 42.334 9.49915 42.8008 9.66718 42.8008 10.6144L 42.8008 14.68L 44.0469 14.68ZM 29.5977 6.1792L 31.084 6.1792L 31.084 14.68L 29.7891 14.68L 29.7891 8.5152L 29.6836 8.5152L 27.2363 14.68L 26.4707 14.68L 24.0234 8.66083L 23.916 8.66083L 23.916 14.68L 22.8379 14.68L 22.8379 6.1792L 24.2871 6.1792L 26.9746 12.88L 27.0352 12.88L 29.5977 6.1792ZM 32.4023 11.6832C 32.4023 9.58563 33.5547 8.54242 35.1367 8.54242C 36.7188 8.54242 37.8711 9.58405 37.8711 11.6832C 37.8711 13.7328 36.7793 14.8256 35.1367 14.8256C 33.4961 14.8256 32.4023 13.7328 32.4023 11.6832ZM 35.1367 13.984C 34.2852 13.984 33.6621 13.328 33.6621 11.6832C 33.6621 10.064 34.3477 9.3808 35.1367 9.3808C 35.9531 9.3808 36.6133 10.064 36.6133 11.6832C 36.6133 13.328 35.9883 13.984 35.1367 13.984ZM 78.6973 9.79041L 79.8203 11.04L 78.5723 12.1648L 77.4473 10.9152L 78.6973 9.79041ZM 56.252 8.74402L 54.9688 8.74402L 53.6055 13.16L 53.5352 13.16L 52 8.74561L 50.6816 8.74561L 52.9824 14.744C 52.6953 15.632 52.1914 16.2784 51.377 16.2784L 51.377 17.2592C 52.7539 17.2592 53.4844 16.3968 54.084 14.7408L 56.252 8.74402ZM 47.8828 8.54242C 46.084 8.54242 45.1621 9.85919 45.1621 11.6832C 45.1621 13.5792 45.9902 14.8256 48.002 14.8256C 48.8652 14.8256 49.582 14.5856 50.123 14.2704L 50.123 13.3632C 49.4648 13.7552 48.8652 13.9856 48.2188 13.9856C 46.9844 13.9856 46.3945 13.352 46.3945 11.9104L 50.3027 11.9104L 50.3027 11.4704C 50.3066 9.51202 49.3809 8.54242 47.8828 8.54242ZM 47.8477 9.34399C 47.1172 9.34399 46.5527 9.90881 46.418 11.1056L 49.166 11.1056C 49.1074 9.84479 48.4941 9.34399 47.8477 9.34399ZM 76.9688 14.1936L 78.6562 16.0688L 76.7812 17.7568L 75.0918 15.8816L 76.9688 14.1936ZM 73.6777 4.55359L 71.9902 2.67841L 70.1152 4.36639L 71.8027 6.24158L 73.6777 4.55359ZM 68.0273 3.32642L 70.2754 5.82562L 67.7773 8.0752L 65.5273 5.57599L 68.0273 3.32642ZM 71.8438 8.13599L 73.5312 10.0096L 75.4062 8.32159L 73.7148 6.448L 71.8438 8.13599ZM 75.8496 7.20483L 77.0957 6.08002L 78.2188 7.32959L 76.9746 8.45441L 75.8496 7.20483ZM 9.77539 6.1792L 8.37305 6.1792L 7.14844 12.5216L 7.06445 12.5216L 5.39648 6.1792L 4.33008 6.1792L 2.77148 12.5216L 2.68555 12.5216L 1.34375 6.1792L 0 6.1792L 1.94336 14.68L 3.23828 14.68L 4.82031 8.69598L 4.90625 8.69598L 6.53516 14.68L 7.83203 14.68L 9.77539 6.1792ZM 75.1348 13.968L 73.4434 12.0959L 75.3184 10.4064L 77.0098 12.2784L 75.1348 13.968ZM 75.502 2.36639L 74.252 3.49121L 75.377 4.74078L 76.625 3.61597L 75.502 2.36639ZM 69.5684 12.3424L 67.3184 9.8432L 69.8184 7.59039L 72.0664 10.0896L 69.5684 12.3424ZM 69.0977 14.1631L 71.3457 16.6624L 73.8457 14.4128L 71.5957 11.9136L 69.0977 14.1631Z" transform="translate(0 0.601624)" fill="white"/>
</g>
</g>
</g>
</g>
</svg>
