<svg width="30" height="31" viewBox="0 0 30 31" version="1.1" xmlns="http://www.w3.org/2000/svg" xmlns:xlink="http://www.w3.org/1999/xlink">
<g id="Canvas" fill="none">
<g id="paypal-logo">
<path id="PayPal" fill-rule="evenodd" clip-rule="evenodd" d="M 5.95312 0L 19.3867 0C 23.3262 0 27.9121 2.90491 26.5469 9.29865C 25.3398 14.9468 20.834 18.2686 15.4453 18.2686L 9.81445 18.2686L 7.88281 27.3225L 0 27.3225L 5.95312 0ZM 10.9395 13.037L 13.5078 13.037L 14.7754 7.43011L 18.6348 7.43011C 18.7656 7.43011 18.8809 7.45502 18.9961 7.48004L 19.1465 7.51019C 18.8164 6.35181 17.8145 5.56293 16.4883 5.56293L 12.6289 5.56293L 10.9395 13.037ZM 19.1445 9.29932C 18.6758 11.3278 16.748 12.9464 14.7852 13.0224L 15.709 8.92365L 19.209 8.92365L 19.1914 9.04791C 19.1797 9.13031 19.168 9.21277 19.1445 9.29932ZM 28.3223 5.94818C 28.9355 7.32239 29.1445 9.04877 28.6934 11.1661C 27.4863 16.8137 22.9805 20.1354 17.5938 20.1354L 11.9609 20.1354L 10.0312 29.1883L 3.4082 29.1883L 3.08008 30.6818L 10.9648 30.6818L 12.8945 21.629L 18.5254 21.629C 23.9121 21.629 28.418 18.3071 29.627 12.6597C 30.2617 9.68286 29.6016 7.47205 28.3223 5.94818Z" transform="translate(0.0644531 0)" fill="white"/>
</g>
</g>
</svg>
